<svg width="472" height="454" viewBox="0 0 472 454" fill="none" xmlns="http://www.w3.org/2000/svg">
<path d="M353.936 407.641H205.426C204.066 407.641 202.8 407.641 201.566 407.641C145.219 407.641 93.0477 377.083 65.4909 327.873L0 211.088L54.0063 210.201L128.261 81.4774C155.691 31.1913 208.179 0 265.317 0C265.95 0 266.614 0 267.247 0L401.076 1.64665L374.848 48.9245L449.071 177.648C479.286 227.238 479.665 288.987 450.052 338.83L381.714 454L353.936 407.641ZM285.914 273.185L356.34 391.649L407.404 305.738C427.051 272.679 426.956 231.639 407.088 198.706L366.496 126.19L285.914 273.185ZM291.292 361.788L204.382 218.466L66.6931 220.271L115.479 307.48C133.861 340.35 168.631 360.743 206.249 360.743C206.882 360.743 207.546 360.743 208.179 360.743L291.292 361.819V361.788ZM258.547 53.5477C220.676 53.5477 185.779 74.1625 167.461 107.349L125.002 178.788L292.494 175.115L359.789 54.8461L259.939 53.5161H258.547V53.5477Z" fill="white" fill-opacity="0.14"/>
</svg>
