<svg width="187" height="65" viewBox="0 0 187 65" fill="none" xmlns="http://www.w3.org/2000/svg">
<path d="M174.265 5.92443L162.894 14.243L163.197 16.2199L166.39 17.2481L170.914 17.0607L172.129 18.3919L173.648 21.7L175.585 24.4382L177.562 24.1352L179.009 20.3726L180.077 14.1389L181.296 8.89361L182.667 4.6368L182.934 3.07836L181.149 1.32867L179.247 2.12588L174.265 5.92443Z" fill="#1E90FF"/>
<path d="M179.771 1.2636C180.47 0.754061 181.481 0.734577 182.201 1.21719C182.892 1.68085 183.245 2.51151 183.113 3.32217L183.079 3.48438L178.215 23.2176C178.007 24.0538 177.325 24.6747 176.478 24.8056L176.353 24.8229C175.463 24.9053 174.612 24.4171 174.234 23.6084L171.516 17.785L171.388 17.5102L171.084 17.4964L164.324 17.1998L164.321 17.1991C163.426 17.1618 162.647 16.5573 162.386 15.6936C162.127 14.8326 162.442 13.8974 163.168 13.3686L163.169 13.3685L179.771 1.2636ZM180.772 1.36902C180.516 1.40839 180.272 1.5108 180.063 1.66144L180.062 1.6627L163.459 13.7677C162.899 14.1743 162.66 14.8909 162.859 15.552C163.046 16.1728 163.581 16.6198 164.215 16.6987L164.343 16.7097L171.706 17.0306L174.679 23.4018C174.971 24.0245 175.626 24.4009 176.313 24.334L176.327 24.3329L176.4 24.3216C177.011 24.228 177.51 23.8003 177.701 23.2192L177.735 23.1004L182.6 3.36813C182.762 2.70733 182.493 2.00823 181.927 1.62769L181.927 1.62784C181.587 1.39958 181.176 1.30715 180.772 1.36902Z" fill="#93E46E" stroke="black"/>
<rect y="27.0001" width="170" height="38" rx="19" fill="#1E90FF"/>
<path d="M16.7518 48.8121H20.2318V50.0001H15.5038V41.4801H16.7518V48.8121ZM21.6643 42.9921C21.2923 42.9921 20.9923 42.6921 20.9923 42.3201C20.9923 41.9481 21.2923 41.6481 21.6643 41.6481C22.0363 41.6481 22.3363 41.9481 22.3363 42.3201C22.3363 42.6921 22.0363 42.9921 21.6643 42.9921ZM22.2883 43.9281V50.0001H21.0403V43.9281H22.2883ZM28.4783 43.9281H29.8703L27.3023 50.0001H25.8503L23.2823 43.9281H24.6863L26.5823 48.6921L28.4783 43.9281ZM36.2946 47.0361V47.3481H31.4706C31.5066 48.2841 32.2026 49.0041 33.3666 49.0041C34.2426 49.0041 34.7946 48.5241 35.0466 48.0561L36.1386 48.1761C35.9346 49.0161 34.9866 50.1201 33.3546 50.1201C31.5066 50.1201 30.2226 48.7401 30.2226 46.9281C30.2226 45.2361 31.4346 43.8081 33.2586 43.8081C35.1306 43.8081 36.2946 45.3081 36.2946 47.0361ZM33.2586 44.9241C32.2386 44.9241 31.5186 45.6201 31.4706 46.4721H35.0346C34.9866 45.6561 34.3146 44.9241 33.2586 44.9241ZM48.6919 41.4801H49.9519V50.0001H48.6919V43.7481L45.8359 48.3441H45.2959L42.4399 43.7481V50.0001H41.1799V41.4801H42.4399L45.5599 46.4721L48.6919 41.4801ZM57.2946 47.0361V47.3481H52.4706C52.5066 48.2841 53.2026 49.0041 54.3666 49.0041C55.2426 49.0041 55.7946 48.5241 56.0466 48.0561L57.1386 48.1761C56.9346 49.0161 55.9866 50.1201 54.3546 50.1201C52.5066 50.1201 51.2226 48.7401 51.2226 46.9281C51.2226 45.2361 52.4346 43.8081 54.2586 43.8081C56.1306 43.8081 57.2946 45.3081 57.2946 47.0361ZM54.2586 44.9241C53.2386 44.9241 52.5186 45.6201 52.4706 46.4721H56.0346C55.9866 45.6561 55.3146 44.9241 54.2586 44.9241ZM61.9587 43.8081C63.3867 43.8081 64.1907 44.7441 64.1907 46.4361V50.0001H62.9427V46.9881C62.9427 45.5241 62.3547 44.9961 61.4787 44.9961C60.2907 44.9961 59.6907 45.9321 59.6307 46.8321V50.0001H58.3827V43.9281H59.5587L59.6187 44.9001C60.1947 44.2881 60.9747 43.8081 61.9587 43.8081ZM68.6155 43.9281V45.1161H67.3195V50.0001H66.0595V45.1161H65.1595V43.9281H66.0595V42.1281H67.3195V43.9281H68.6155ZM72.4277 50.1201C70.5437 50.1201 69.1757 48.7041 69.1757 46.9641C69.1757 45.2241 70.5437 43.8081 72.4277 43.8081C74.2877 43.8081 75.6437 45.2241 75.6437 46.9641C75.6437 48.7041 74.2877 50.1201 72.4277 50.1201ZM72.4277 48.9321C73.5557 48.9321 74.3957 48.0441 74.3957 46.9641C74.3957 45.8841 73.5557 44.9961 72.4277 44.9961C71.2757 44.9961 70.4237 45.8841 70.4237 46.9641C70.4237 48.0441 71.2757 48.9321 72.4277 48.9321ZM79.3383 43.8081C79.6983 43.8081 79.9503 43.9521 80.0823 44.0721L79.8903 45.1641C79.7703 45.0921 79.5303 44.9961 79.2663 44.9961C78.4023 44.9961 77.9823 45.9201 77.9823 47.1321V50.0001H76.7343V43.9281H77.9103L77.9703 44.6361C78.3543 44.1441 78.8103 43.8081 79.3383 43.8081ZM80.6249 48.2361H81.8729C81.9929 48.7281 82.4969 49.0641 83.2769 49.0641C83.8889 49.0641 84.3809 48.8241 84.3809 48.3921C84.3809 47.8161 83.8289 47.6841 82.5809 47.2521C81.6209 46.9401 80.8169 46.4721 80.8169 45.4881C80.8169 44.4441 81.8729 43.8081 82.9649 43.8081C84.3689 43.8081 85.2329 44.6001 85.2929 45.5961H84.0329C83.9849 45.0921 83.4809 44.8521 83.0129 44.8521C82.5689 44.8521 82.0769 45.0681 82.0769 45.4881C82.0769 45.9681 82.5929 46.0761 83.8409 46.5441C85.0769 46.9761 85.6409 47.5761 85.6409 48.4161C85.6409 49.4961 84.5969 50.1201 83.2529 50.1201C81.7889 50.1201 80.7449 49.4841 80.6249 48.2361ZM90.1306 43.8081C91.5586 43.8081 92.3626 44.7441 92.3626 46.4361V50.0001H91.1146V46.9881C91.1146 45.5241 90.5266 44.9961 89.6506 44.9961C88.4626 44.9961 87.8626 45.9321 87.8026 46.8321V50.0001H86.5546V41.0001H87.8026V44.8881C88.3786 44.2761 89.1586 43.8081 90.1306 43.8081ZM94.2854 42.9921C93.9134 42.9921 93.6134 42.6921 93.6134 42.3201C93.6134 41.9481 93.9134 41.6481 94.2854 41.6481C94.6574 41.6481 94.9574 41.9481 94.9574 42.3201C94.9574 42.6921 94.6574 42.9921 94.2854 42.9921ZM94.9094 43.9281V50.0001H93.6614V43.9281H94.9094ZM96.3866 52.7601V43.9281H97.5626L97.6346 45.1761C97.9946 44.4081 98.8586 43.8081 99.9506 43.8081C101.691 43.8081 102.999 45.2241 102.999 46.9641C102.999 48.7041 101.691 50.1201 99.9506 50.1201C98.8586 50.1201 97.9946 49.5201 97.6346 48.7401V52.7601H96.3866ZM97.7786 46.9641C97.7786 48.0441 98.6066 48.9321 99.7466 48.9321C100.887 48.9321 101.739 48.0441 101.739 46.9641C101.739 45.8841 100.887 44.9961 99.7466 44.9961C98.6066 44.9961 97.7786 45.8841 97.7786 46.9641ZM107.979 47.5281H109.227C109.287 48.4881 110.007 48.9321 110.787 48.9321C111.675 48.9321 112.179 48.4761 112.179 47.8641C112.179 47.0841 111.447 46.7001 110.451 46.1841C108.855 45.2841 108.159 44.6961 108.159 43.4961C108.159 42.2361 109.251 41.3601 110.631 41.3601C112.107 41.3601 113.091 42.4641 113.139 43.8321H111.891C111.843 43.0521 111.339 42.5481 110.631 42.5481C109.959 42.5481 109.407 42.9441 109.407 43.5441C109.407 44.3121 109.995 44.5881 110.895 45.0561C112.443 45.8721 113.439 46.5921 113.439 47.9121C113.439 49.3041 112.263 50.1201 110.787 50.1201C109.107 50.1201 108.027 48.9321 107.979 47.5281ZM120.318 47.0361V47.3481H115.494C115.53 48.2841 116.226 49.0041 117.39 49.0041C118.266 49.0041 118.818 48.5241 119.07 48.0561L120.162 48.1761C119.958 49.0161 119.01 50.1201 117.378 50.1201C115.53 50.1201 114.246 48.7401 114.246 46.9281C114.246 45.2361 115.458 43.8081 117.282 43.8081C119.154 43.8081 120.318 45.3081 120.318 47.0361ZM117.282 44.9241C116.262 44.9241 115.542 45.6201 115.494 46.4721H119.058C119.01 45.6561 118.338 44.9241 117.282 44.9241ZM121.055 48.2361H122.303C122.423 48.7281 122.927 49.0641 123.707 49.0641C124.319 49.0641 124.811 48.8241 124.811 48.3921C124.811 47.8161 124.259 47.6841 123.011 47.2521C122.051 46.9401 121.247 46.4721 121.247 45.4881C121.247 44.4441 122.303 43.8081 123.395 43.8081C124.799 43.8081 125.663 44.6001 125.723 45.5961H124.463C124.415 45.0921 123.911 44.8521 123.443 44.8521C122.999 44.8521 122.507 45.0681 122.507 45.4881C122.507 45.9681 123.023 46.0761 124.271 46.5441C125.507 46.9761 126.071 47.5761 126.071 48.4161C126.071 49.4961 125.027 50.1201 123.683 50.1201C122.219 50.1201 121.175 49.4841 121.055 48.2361ZM126.762 48.2361H128.01C128.13 48.7281 128.634 49.0641 129.414 49.0641C130.026 49.0641 130.518 48.8241 130.518 48.3921C130.518 47.8161 129.966 47.6841 128.718 47.2521C127.758 46.9401 126.954 46.4721 126.954 45.4881C126.954 44.4441 128.01 43.8081 129.102 43.8081C130.506 43.8081 131.37 44.6001 131.43 45.5961H130.17C130.122 45.0921 129.618 44.8521 129.15 44.8521C128.706 44.8521 128.214 45.0681 128.214 45.4881C128.214 45.9681 128.73 46.0761 129.978 46.5441C131.214 46.9761 131.778 47.5761 131.778 48.4161C131.778 49.4961 130.734 50.1201 129.39 50.1201C127.926 50.1201 126.882 49.4841 126.762 48.2361ZM133.461 42.9921C133.089 42.9921 132.789 42.6921 132.789 42.3201C132.789 41.9481 133.089 41.6481 133.461 41.6481C133.833 41.6481 134.133 41.9481 134.133 42.3201C134.133 42.6921 133.833 42.9921 133.461 42.9921ZM134.085 43.9281V50.0001H132.837V43.9281H134.085ZM138.568 50.1201C136.684 50.1201 135.316 48.7041 135.316 46.9641C135.316 45.2241 136.684 43.8081 138.568 43.8081C140.428 43.8081 141.784 45.2241 141.784 46.9641C141.784 48.7041 140.428 50.1201 138.568 50.1201ZM138.568 48.9321C139.696 48.9321 140.536 48.0441 140.536 46.9641C140.536 45.8841 139.696 44.9961 138.568 44.9961C137.416 44.9961 136.564 45.8841 136.564 46.9641C136.564 48.0441 137.416 48.9321 138.568 48.9321ZM146.451 43.8081C147.879 43.8081 148.683 44.7441 148.683 46.4361V50.0001H147.435V46.9881C147.435 45.5241 146.847 44.9961 145.971 44.9961C144.783 44.9961 144.183 45.9321 144.123 46.8321V50.0001H142.875V43.9281H144.051L144.111 44.9001C144.687 44.2881 145.467 43.8081 146.451 43.8081ZM149.719 48.2361H150.967C151.087 48.7281 151.591 49.0641 152.371 49.0641C152.983 49.0641 153.475 48.8241 153.475 48.3921C153.475 47.8161 152.923 47.6841 151.675 47.2521C150.715 46.9401 149.911 46.4721 149.911 45.4881C149.911 44.4441 150.967 43.8081 152.059 43.8081C153.463 43.8081 154.327 44.6001 154.387 45.5961H153.127C153.079 45.0921 152.575 44.8521 152.107 44.8521C151.663 44.8521 151.171 45.0681 151.171 45.4881C151.171 45.9681 151.687 46.0761 152.935 46.5441C154.171 46.9761 154.735 47.5761 154.735 48.4161C154.735 49.4961 153.691 50.1201 152.347 50.1201C150.883 50.1201 149.839 49.4841 149.719 48.2361Z" fill="white"/>
</svg>
