<svg width="187" height="65" viewBox="0 0 187 65" fill="none" xmlns="http://www.w3.org/2000/svg">
<path d="M174.265 5.92443L162.894 14.243L163.197 16.2199L166.39 17.2481L170.914 17.0607L172.129 18.3919L173.648 21.7L175.585 24.4382L177.562 24.1352L179.009 20.3726L180.077 14.1389L181.296 8.89361L182.667 4.6368L182.934 3.07836L181.149 1.32867L179.247 2.12588L174.265 5.92443Z" fill="#1E90FF"/>
<path d="M179.771 1.2636C180.47 0.754061 181.481 0.734577 182.201 1.21719C182.892 1.68085 183.245 2.51151 183.113 3.32217L183.079 3.48438L178.215 23.2176C178.007 24.0538 177.325 24.6747 176.478 24.8056L176.353 24.8229C175.463 24.9053 174.612 24.4171 174.234 23.6084L171.516 17.785L171.388 17.5102L171.084 17.4964L164.324 17.1998L164.321 17.1991C163.426 17.1618 162.647 16.5573 162.386 15.6936C162.127 14.8326 162.442 13.8974 163.168 13.3686L163.169 13.3685L179.771 1.2636ZM180.772 1.36902C180.516 1.40839 180.272 1.5108 180.063 1.66144L180.062 1.6627L163.459 13.7677C162.899 14.1743 162.66 14.8909 162.859 15.552C163.046 16.1728 163.581 16.6198 164.215 16.6987L164.343 16.7097L171.706 17.0306L174.679 23.4018C174.971 24.0245 175.626 24.4009 176.313 24.334L176.327 24.3329L176.4 24.3216C177.011 24.228 177.51 23.8003 177.701 23.2192L177.735 23.1004L182.6 3.36813C182.762 2.70733 182.493 2.00823 181.927 1.62769L181.927 1.62784C181.587 1.39958 181.176 1.30715 180.772 1.36902Z" fill="#93E46E" stroke="black"/>
<rect y="27.0001" width="160" height="38" rx="19" fill="#1E90FF"/>
<path d="M15.2295 50.0001V41.4801H16.4775V50.0001H15.2295ZM21.4333 43.8081C22.8613 43.8081 23.6653 44.7441 23.6653 46.4361V50.0001H22.4173V46.9881C22.4173 45.5241 21.8293 44.9961 20.9533 44.9961C19.7653 44.9961 19.1653 45.9321 19.1053 46.8321V50.0001H17.8573V43.9281H19.0333L19.0933 44.9001C19.6693 44.2881 20.4493 43.8081 21.4333 43.8081ZM28.0901 43.9281V45.1161H26.7941V50.0001H25.5341V45.1161H24.6341V43.9281H25.5341V42.1281H26.7941V43.9281H28.0901ZM34.7223 47.0361V47.3481H29.8983C29.9343 48.2841 30.6303 49.0041 31.7943 49.0041C32.6703 49.0041 33.2223 48.5241 33.4743 48.0561L34.5663 48.1761C34.3623 49.0161 33.4143 50.1201 31.7823 50.1201C29.9343 50.1201 28.6503 48.7401 28.6503 46.9281C28.6503 45.2361 29.8623 43.8081 31.6863 43.8081C33.5583 43.8081 34.7223 45.3081 34.7223 47.0361ZM31.6863 44.9241C30.6663 44.9241 29.9463 45.6201 29.8983 46.4721H33.4623C33.4143 45.6561 32.7423 44.9241 31.6863 44.9241ZM38.4145 43.8081C38.7745 43.8081 39.0265 43.9521 39.1585 44.0721L38.9665 45.1641C38.8465 45.0921 38.6065 44.9961 38.3425 44.9961C37.4785 44.9961 37.0585 45.9201 37.0585 47.1321V50.0001H35.8105V43.9281H36.9865L37.0465 44.6361C37.4305 44.1441 37.8865 43.8081 38.4145 43.8081ZM39.4902 46.9641C39.4902 45.2241 40.7982 43.8081 42.5382 43.8081C43.6302 43.8081 44.4942 44.4081 44.8422 45.1761L44.9142 43.9281H46.1022V50.0001H44.9142L44.8422 48.7401C44.4942 49.5201 43.6302 50.1201 42.5382 50.1201C40.7982 50.1201 39.4902 48.7041 39.4902 46.9641ZM40.7382 46.9641C40.7382 48.0441 41.5902 48.9321 42.7422 48.9321C43.8702 48.9321 44.7102 48.0441 44.7102 46.9641C44.7102 45.8841 43.8702 44.9961 42.7422 44.9961C41.5902 44.9961 40.7382 45.8841 40.7382 46.9641ZM52.0285 45.6801C51.5485 45.2121 51.0085 44.9961 50.3845 44.9961C49.3525 44.9961 48.3805 45.8121 48.3805 46.9641C48.3805 48.1161 49.3525 48.9321 50.3845 48.9321C51.0085 48.9321 51.5485 48.7041 52.0285 48.2361V49.4481C51.5965 49.8561 50.9725 50.1201 50.1925 50.1201C48.4045 50.1201 47.0605 48.6801 47.0605 46.9641C47.0605 45.2601 48.4045 43.8081 50.1925 43.8081C50.9725 43.8081 51.5965 44.0721 52.0285 44.4801V45.6801ZM56.4026 43.9281V45.1161H55.1066V50.0001H53.8466V45.1161H52.9466V43.9281H53.8466V42.1281H55.1066V43.9281H56.4026ZM57.9905 42.9921C57.6185 42.9921 57.3185 42.6921 57.3185 42.3201C57.3185 41.9481 57.6185 41.6481 57.9905 41.6481C58.3625 41.6481 58.6625 41.9481 58.6625 42.3201C58.6625 42.6921 58.3625 42.9921 57.9905 42.9921ZM58.6145 43.9281V50.0001H57.3665V43.9281H58.6145ZM64.8044 43.9281H66.1964L63.6284 50.0001H62.1764L59.6084 43.9281H61.0124L62.9084 48.6921L64.8044 43.9281ZM72.6208 47.0361V47.3481H67.7968C67.8328 48.2841 68.5288 49.0041 69.6928 49.0041C70.5688 49.0041 71.1208 48.5241 71.3728 48.0561L72.4648 48.1761C72.2608 49.0161 71.3128 50.1201 69.6808 50.1201C67.8328 50.1201 66.5488 48.7401 66.5488 46.9281C66.5488 45.2361 67.7608 43.8081 69.5848 43.8081C71.4568 43.8081 72.6208 45.3081 72.6208 47.0361ZM69.5848 44.9241C68.5648 44.9241 67.8448 45.6201 67.7968 46.4721H71.3608C71.3128 45.6561 70.6408 44.9241 69.5848 44.9241ZM78.7421 48.8121H82.2221V50.0001H77.4941V41.4801H78.7421V48.8121ZM83.6546 42.9921C83.2826 42.9921 82.9826 42.6921 82.9826 42.3201C82.9826 41.9481 83.2826 41.6481 83.6546 41.6481C84.0266 41.6481 84.3266 41.9481 84.3266 42.3201C84.3266 42.6921 84.0266 42.9921 83.6546 42.9921ZM84.2786 43.9281V50.0001H83.0306V43.9281H84.2786ZM90.4685 43.9281H91.8605L89.2925 50.0001H87.8405L85.2725 43.9281H86.6765L88.5725 48.6921L90.4685 43.9281ZM98.2848 47.0361V47.3481H93.4608C93.4968 48.2841 94.1928 49.0041 95.3568 49.0041C96.2328 49.0041 96.7848 48.5241 97.0368 48.0561L98.1288 48.1761C97.9248 49.0161 96.9768 50.1201 95.3448 50.1201C93.4968 50.1201 92.2128 48.7401 92.2128 46.9281C92.2128 45.2361 93.4248 43.8081 95.2488 43.8081C97.1208 43.8081 98.2848 45.3081 98.2848 47.0361ZM95.2488 44.9241C94.2288 44.9241 93.5088 45.6201 93.4608 46.4721H97.0248C96.9768 45.6561 96.3048 44.9241 95.2488 44.9241ZM109.914 43.4721C109.542 43.0881 108.762 42.5481 107.562 42.5481C105.846 42.5481 104.406 43.8921 104.406 45.7401C104.406 47.5881 105.846 48.9321 107.562 48.9321C108.762 48.9321 109.542 48.3801 109.914 48.0081V49.2801C109.494 49.6521 108.666 50.1201 107.418 50.1201C105.03 50.1201 103.158 48.2001 103.158 45.7401C103.158 43.2801 105.03 41.3601 107.418 41.3601C108.666 41.3601 109.494 41.8281 109.914 42.2001V43.4721ZM112.516 41.0001V50.0001H111.268V41.0001H112.516ZM113.658 46.9641C113.658 45.2241 114.966 43.8081 116.706 43.8081C117.798 43.8081 118.662 44.4081 119.01 45.1761L119.082 43.9281H120.27V50.0001H119.082L119.01 48.7401C118.662 49.5201 117.798 50.1201 116.706 50.1201C114.966 50.1201 113.658 48.7041 113.658 46.9641ZM114.906 46.9641C114.906 48.0441 115.758 48.9321 116.91 48.9321C118.038 48.9321 118.878 48.0441 118.878 46.9641C118.878 45.8841 118.038 44.9961 116.91 44.9961C115.758 44.9961 114.906 45.8841 114.906 46.9641ZM121.475 48.2361H122.723C122.843 48.7281 123.347 49.0641 124.127 49.0641C124.739 49.0641 125.231 48.8241 125.231 48.3921C125.231 47.8161 124.679 47.6841 123.431 47.2521C122.471 46.9401 121.667 46.4721 121.667 45.4881C121.667 44.4441 122.723 43.8081 123.815 43.8081C125.219 43.8081 126.083 44.6001 126.143 45.5961H124.883C124.835 45.0921 124.331 44.8521 123.863 44.8521C123.419 44.8521 122.927 45.0681 122.927 45.4881C122.927 45.9681 123.443 46.0761 124.691 46.5441C125.927 46.9761 126.491 47.5761 126.491 48.4161C126.491 49.4961 125.447 50.1201 124.103 50.1201C122.639 50.1201 121.595 49.4841 121.475 48.2361ZM127.182 48.2361H128.43C128.55 48.7281 129.054 49.0641 129.834 49.0641C130.446 49.0641 130.938 48.8241 130.938 48.3921C130.938 47.8161 130.386 47.6841 129.138 47.2521C128.178 46.9401 127.374 46.4721 127.374 45.4881C127.374 44.4441 128.43 43.8081 129.522 43.8081C130.926 43.8081 131.79 44.6001 131.85 45.5961H130.59C130.542 45.0921 130.038 44.8521 129.57 44.8521C129.126 44.8521 128.634 45.0681 128.634 45.4881C128.634 45.9681 129.15 46.0761 130.398 46.5441C131.634 46.9761 132.198 47.5761 132.198 48.4161C132.198 49.4961 131.154 50.1201 129.81 50.1201C128.346 50.1201 127.302 49.4841 127.182 48.2361ZM139.136 47.0361V47.3481H134.312C134.348 48.2841 135.044 49.0041 136.208 49.0041C137.084 49.0041 137.636 48.5241 137.888 48.0561L138.98 48.1761C138.776 49.0161 137.828 50.1201 136.196 50.1201C134.348 50.1201 133.064 48.7401 133.064 46.9281C133.064 45.2361 134.276 43.8081 136.1 43.8081C137.972 43.8081 139.136 45.3081 139.136 47.0361ZM136.1 44.9241C135.08 44.9241 134.36 45.6201 134.312 46.4721H137.876C137.828 45.6561 137.156 44.9241 136.1 44.9241ZM139.873 48.2361H141.121C141.241 48.7281 141.745 49.0641 142.525 49.0641C143.137 49.0641 143.629 48.8241 143.629 48.3921C143.629 47.8161 143.077 47.6841 141.829 47.2521C140.869 46.9401 140.065 46.4721 140.065 45.4881C140.065 44.4441 141.121 43.8081 142.213 43.8081C143.617 43.8081 144.481 44.6001 144.541 45.5961H143.281C143.233 45.0921 142.729 44.8521 142.261 44.8521C141.817 44.8521 141.325 45.0681 141.325 45.4881C141.325 45.9681 141.841 46.0761 143.089 46.5441C144.325 46.9761 144.889 47.5761 144.889 48.4161C144.889 49.4961 143.845 50.1201 142.501 50.1201C141.037 50.1201 139.993 49.4841 139.873 48.2361Z" fill="white"/>
</svg>
