<svg width="168" height="65" viewBox="0 0 168 65" fill="none" xmlns="http://www.w3.org/2000/svg">
<g clip-path="url(#clip0_96_567)">
<path d="M10.0002 4.5L22.5002 11V13L19.5002 14.5L15.0002 15L14.0002 16.5L13.0002 20L11.5002 23H9.50024L7.50024 19.5L5.50024 13.5L3.50024 8.5L1.50024 4.5L1.00024 3L2.50024 1L4.50024 1.5L10.0002 4.5Z" fill="#93E46E" stroke="#93E46E"/>
<path d="M3.85181 0.727509C3.08428 0.329643 2.08161 0.463596 1.44263 1.04977C0.830597 1.61264 0.607003 2.48726 0.860596 3.26852L0.918213 3.4238L8.71606 22.1924C9.0485 22.9874 9.81611 23.4978 10.6731 23.499L10.8 23.497C11.6919 23.4437 12.4593 22.8322 12.7102 21.9756L14.5149 15.8076L14.5999 15.5166L14.8977 15.457L21.5354 14.1396L21.5374 14.1386C22.4166 13.9662 23.0956 13.2505 23.2219 12.3574C23.348 11.467 22.8954 10.5902 22.0969 10.1777H22.0959L3.85181 0.727509ZM2.87817 0.983368C3.13797 0.983388 3.39476 1.04764 3.62329 1.16501L3.62524 1.16599L21.8704 10.6162C22.4847 10.9334 22.8304 11.6053 22.7336 12.289C22.6426 12.9309 22.1816 13.4539 21.5667 13.6279L21.4417 13.6582L14.2122 15.0908L12.2385 21.8388C12.0447 22.4985 11.4543 22.9698 10.7649 23.0078L10.7512 23.0088H10.677C10.0588 23.0088 9.50087 22.6616 9.22388 22.1162L9.17212 22.0039L1.37427 3.2363C1.11408 2.60765 1.27445 1.87582 1.77563 1.41403H1.77661C2.07745 1.137 2.46974 0.983368 2.87817 0.983368Z" fill="#93E46E" stroke="#1D1D1D"/>
</g>
<rect x="24" y="27" width="144" height="38" rx="19" fill="#93E46E"/>
<path d="M43.6947 50L41.9667 47.24H40.2867V50H39.0267V41.48H42.1467C43.6467 41.48 45.0387 42.572 45.0387 44.36C45.0387 45.692 44.2707 46.64 43.2507 47.036L45.1107 50H43.6947ZM40.2867 42.668V46.052H42.1467C43.0347 46.052 43.7907 45.416 43.7907 44.36C43.7907 43.292 43.0347 42.668 42.1467 42.668H40.2867ZM51.7829 47.036V47.348H46.9589C46.9949 48.284 47.6909 49.004 48.8549 49.004C49.7309 49.004 50.2829 48.524 50.5349 48.056L51.6269 48.176C51.4229 49.016 50.4749 50.12 48.8429 50.12C46.9949 50.12 45.7109 48.74 45.7109 46.928C45.7109 45.236 46.9229 43.808 48.7469 43.808C50.6189 43.808 51.7829 45.308 51.7829 47.036ZM48.7469 44.924C47.7269 44.924 47.0069 45.62 46.9589 46.472H50.5229C50.4749 45.656 49.8029 44.924 48.7469 44.924ZM52.6952 46.964C52.6952 45.224 54.0032 43.808 55.7432 43.808C56.8352 43.808 57.6992 44.408 58.0472 45.176L58.1192 43.928H59.3072V50H58.1192L58.0472 48.74C57.6992 49.52 56.8352 50.12 55.7432 50.12C54.0032 50.12 52.6952 48.704 52.6952 46.964ZM53.9432 46.964C53.9432 48.044 54.7952 48.932 55.9472 48.932C57.0752 48.932 57.9152 48.044 57.9152 46.964C57.9152 45.884 57.0752 44.996 55.9472 44.996C54.7952 44.996 53.9432 45.884 53.9432 46.964ZM61.9354 41V50H60.6874V41H61.9354ZM69.4474 41.48C71.1034 41.48 72.5074 42.488 72.5074 44.336C72.5074 46.172 71.1034 47.18 69.4474 47.18H67.7554V50H66.4954V41.48H69.4474ZM69.4474 46.004C70.4914 46.004 71.2594 45.452 71.2594 44.336C71.2594 43.22 70.4914 42.668 69.4474 42.668H67.7554V46.004H69.4474ZM76.1117 43.808C76.4717 43.808 76.7237 43.952 76.8557 44.072L76.6637 45.164C76.5437 45.092 76.3037 44.996 76.0397 44.996C75.1757 44.996 74.7557 45.92 74.7557 47.132V50H73.5077V43.928H74.6837L74.7437 44.636C75.1277 44.144 75.5837 43.808 76.1117 43.808ZM80.4394 50.12C78.5554 50.12 77.1874 48.704 77.1874 46.964C77.1874 45.224 78.5554 43.808 80.4394 43.808C82.2994 43.808 83.6554 45.224 83.6554 46.964C83.6554 48.704 82.2994 50.12 80.4394 50.12ZM80.4394 48.932C81.5674 48.932 82.4074 48.044 82.4074 46.964C82.4074 45.884 81.5674 44.996 80.4394 44.996C79.2874 44.996 78.4354 45.884 78.4354 46.964C78.4354 48.044 79.2874 48.932 80.4394 48.932ZM85.4242 42.992C85.0522 42.992 84.7522 42.692 84.7522 42.32C84.7522 41.948 85.0522 41.648 85.4242 41.648C85.7962 41.648 86.0962 41.948 86.0962 42.32C86.0962 42.692 85.7962 42.992 85.4242 42.992ZM86.0602 43.928V50L85.0762 52.76H83.7682L84.8002 49.916V43.928H86.0602ZM93.1735 47.036V47.348H88.3495C88.3855 48.284 89.0815 49.004 90.2455 49.004C91.1215 49.004 91.6735 48.524 91.9255 48.056L93.0175 48.176C92.8135 49.016 91.8655 50.12 90.2335 50.12C88.3855 50.12 87.1015 48.74 87.1015 46.928C87.1015 45.236 88.3135 43.808 90.1375 43.808C92.0095 43.808 93.1735 45.308 93.1735 47.036ZM90.1375 44.924C89.1175 44.924 88.3975 45.62 88.3495 46.472H91.9135C91.8655 45.656 91.1935 44.924 90.1375 44.924ZM99.0539 45.68C98.5739 45.212 98.0339 44.996 97.4099 44.996C96.3779 44.996 95.4059 45.812 95.4059 46.964C95.4059 48.116 96.3779 48.932 97.4099 48.932C98.0339 48.932 98.5739 48.704 99.0539 48.236V49.448C98.6219 49.856 97.9979 50.12 97.2179 50.12C95.4299 50.12 94.0859 48.68 94.0859 46.964C94.0859 45.26 95.4299 43.808 97.2179 43.808C97.9979 43.808 98.6219 44.072 99.0539 44.48V45.68ZM103.428 43.928V45.116H102.132V50H100.872V45.116H99.972V43.928H100.872V42.128H102.132V43.928H103.428ZM110.826 41.48C112.482 41.48 113.886 42.488 113.886 44.336C113.886 46.172 112.482 47.18 110.826 47.18H109.134V50H107.874V41.48H110.826ZM110.826 46.004C111.87 46.004 112.638 45.452 112.638 44.336C112.638 43.22 111.87 42.668 110.826 42.668H109.134V46.004H110.826ZM117.658 50.12C115.774 50.12 114.406 48.704 114.406 46.964C114.406 45.224 115.774 43.808 117.658 43.808C119.518 43.808 120.874 45.224 120.874 46.964C120.874 48.704 119.518 50.12 117.658 50.12ZM117.658 48.932C118.786 48.932 119.626 48.044 119.626 46.964C119.626 45.884 118.786 44.996 117.658 44.996C116.506 44.996 115.654 45.884 115.654 46.964C115.654 48.044 116.506 48.932 117.658 48.932ZM124.569 43.808C124.929 43.808 125.181 43.952 125.313 44.072L125.121 45.164C125.001 45.092 124.761 44.996 124.497 44.996C123.633 44.996 123.213 45.92 123.213 47.132V50H121.965V43.928H123.141L123.201 44.636C123.585 44.144 124.041 43.808 124.569 43.808ZM129.397 43.928V45.116H128.101V50H126.841V45.116H125.941V43.928H126.841V42.128H128.101V43.928H129.397ZM132.754 42.548C132.106 42.548 131.926 42.944 131.926 43.556V43.928H133.426V45.116H131.926V50H130.666V45.116H130.042V43.928H130.666V43.376C130.666 41.84 131.53 41.36 132.346 41.36C132.862 41.36 133.282 41.564 133.474 41.708V42.764C133.378 42.704 133.042 42.548 132.754 42.548ZM137.287 50.12C135.403 50.12 134.035 48.704 134.035 46.964C134.035 45.224 135.403 43.808 137.287 43.808C139.147 43.808 140.503 45.224 140.503 46.964C140.503 48.704 139.147 50.12 137.287 50.12ZM137.287 48.932C138.415 48.932 139.255 48.044 139.255 46.964C139.255 45.884 138.415 44.996 137.287 44.996C136.135 44.996 135.283 45.884 135.283 46.964C135.283 48.044 136.135 48.932 137.287 48.932ZM142.771 41V50H141.523V41H142.771ZM144.696 42.992C144.324 42.992 144.024 42.692 144.024 42.32C144.024 41.948 144.324 41.648 144.696 41.648C145.068 41.648 145.368 41.948 145.368 42.32C145.368 42.692 145.068 42.992 144.696 42.992ZM145.32 43.928V50H144.072V43.928H145.32ZM149.803 50.12C147.919 50.12 146.551 48.704 146.551 46.964C146.551 45.224 147.919 43.808 149.803 43.808C151.663 43.808 153.019 45.224 153.019 46.964C153.019 48.704 151.663 50.12 149.803 50.12ZM149.803 48.932C150.931 48.932 151.771 48.044 151.771 46.964C151.771 45.884 150.931 44.996 149.803 44.996C148.651 44.996 147.799 45.884 147.799 46.964C147.799 48.044 148.651 48.932 149.803 48.932Z" fill="#1D1D1D"/>
<defs>
<clipPath id="clip0_96_567">
<rect width="24" height="24" fill="white" transform="matrix(-1 0 0 1 24 0)"/>
</clipPath>
</defs>
</svg>
