<svg width="206" height="65" viewBox="0 0 206 65" fill="none" xmlns="http://www.w3.org/2000/svg">
<g clip-path="url(#clip0_96_567)">
<path d="M10.0002 4.5L22.5002 11V13L19.5002 14.5L15.0002 15L14.0002 16.5L13.0002 20L11.5002 23H9.50024L7.50024 19.5L5.50024 13.5L3.50024 8.5L1.50024 4.5L1.00024 3L2.50024 1L4.50024 1.5L10.0002 4.5Z" fill="#93E46E" stroke="#93E46E"/>
<path d="M3.85181 0.727509C3.08428 0.329643 2.08161 0.463596 1.44263 1.04977C0.830597 1.61264 0.607003 2.48726 0.860596 3.26852L0.918213 3.4238L8.71606 22.1924C9.0485 22.9874 9.81611 23.4978 10.6731 23.499L10.8 23.497C11.6919 23.4437 12.4593 22.8322 12.7102 21.9756L14.5149 15.8076L14.5999 15.5166L14.8977 15.457L21.5354 14.1396L21.5374 14.1386C22.4166 13.9662 23.0956 13.2505 23.2219 12.3574C23.348 11.467 22.8954 10.5902 22.0969 10.1777H22.0959L3.85181 0.727509ZM2.87817 0.983368C3.13797 0.983388 3.39476 1.04764 3.62329 1.16501L3.62524 1.16599L21.8704 10.6162C22.4847 10.9334 22.8304 11.6053 22.7336 12.289C22.6426 12.9309 22.1816 13.4539 21.5667 13.6279L21.4417 13.6582L14.2122 15.0908L12.2385 21.8388C12.0447 22.4985 11.4543 22.9698 10.7649 23.0078L10.7512 23.0088H10.677C10.0588 23.0088 9.50087 22.6616 9.22388 22.1162L9.17212 22.0039L1.37427 3.2363C1.11408 2.60765 1.27445 1.87582 1.77563 1.41403H1.77661C2.07745 1.137 2.46974 0.983368 2.87817 0.983368Z" fill="#93E46E" stroke="#1D1D1D"/>
</g>
<rect x="24" y="27" width="182" height="38" rx="19" fill="#93E46E"/>
<path d="M46.2715 43.472C45.8995 43.088 45.1195 42.548 43.9195 42.548C42.2035 42.548 40.7635 43.892 40.7635 45.74C40.7635 47.588 42.2035 48.932 43.9195 48.932C45.1195 48.932 45.8995 48.38 46.2715 48.008V49.28C45.8515 49.652 45.0235 50.12 43.7755 50.12C41.3875 50.12 39.5155 48.2 39.5155 45.74C39.5155 43.28 41.3875 41.36 43.7755 41.36C45.0235 41.36 45.8515 41.828 46.2715 42.2V43.472ZM50.2172 43.808C50.5772 43.808 50.8292 43.952 50.9612 44.072L50.7692 45.164C50.6492 45.092 50.4092 44.996 50.1452 44.996C49.2812 44.996 48.8612 45.92 48.8612 47.132V50H47.6132V43.928H48.7892L48.8492 44.636C49.2332 44.144 49.6892 43.808 50.2172 43.808ZM57.3649 47.036V47.348H52.5409C52.5769 48.284 53.2729 49.004 54.4369 49.004C55.3129 49.004 55.8649 48.524 56.1169 48.056L57.2089 48.176C57.0049 49.016 56.0569 50.12 54.4249 50.12C52.5769 50.12 51.2929 48.74 51.2929 46.928C51.2929 45.236 52.5049 43.808 54.3289 43.808C56.2009 43.808 57.3649 45.308 57.3649 47.036ZM54.3289 44.924C53.3089 44.924 52.5889 45.62 52.5409 46.472H56.1049C56.0569 45.656 55.3849 44.924 54.3289 44.924ZM58.2773 46.964C58.2773 45.224 59.5853 43.808 61.3253 43.808C62.4173 43.808 63.2813 44.408 63.6293 45.176L63.7013 43.928H64.8893V50H63.7013L63.6293 48.74C63.2813 49.52 62.4173 50.12 61.3253 50.12C59.5853 50.12 58.2773 48.704 58.2773 46.964ZM59.5253 46.964C59.5253 48.044 60.3773 48.932 61.5293 48.932C62.6573 48.932 63.4973 48.044 63.4973 46.964C63.4973 45.884 62.6573 44.996 61.5293 44.996C60.3773 44.996 59.5253 45.884 59.5253 46.964ZM69.4358 43.928V45.116H68.1398V50H66.8798V45.116H65.9798V43.928H66.8798V42.128H68.1398V43.928H69.4358ZM76.068 47.036V47.348H71.244C71.28 48.284 71.976 49.004 73.14 49.004C74.016 49.004 74.568 48.524 74.82 48.056L75.912 48.176C75.708 49.016 74.76 50.12 73.128 50.12C71.28 50.12 69.996 48.74 69.996 46.928C69.996 45.236 71.208 43.808 73.032 43.808C74.904 43.808 76.068 45.308 76.068 47.036ZM73.032 44.924C72.012 44.924 71.292 45.62 71.244 46.472H74.808C74.76 45.656 74.088 44.924 73.032 44.924ZM82.0693 47.72C82.0693 48.44 82.4893 48.932 83.1973 48.932C83.8453 48.932 84.3133 48.62 84.3133 47.48V41.48H85.5613V47.48C85.5613 49.292 84.5293 50.12 83.2453 50.12C82.1413 50.12 80.8213 49.424 80.8213 47.72H82.0693ZM89.9707 50.12C88.0867 50.12 86.7187 48.704 86.7187 46.964C86.7187 45.224 88.0867 43.808 89.9707 43.808C91.8307 43.808 93.1867 45.224 93.1867 46.964C93.1867 48.704 91.8307 50.12 89.9707 50.12ZM89.9707 48.932C91.0987 48.932 91.9387 48.044 91.9387 46.964C91.9387 45.884 91.0987 44.996 89.9707 44.996C88.8187 44.996 87.9667 45.884 87.9667 46.964C87.9667 48.044 88.8187 48.932 89.9707 48.932ZM100.862 46.964C100.862 48.704 99.5665 50.12 97.8265 50.12C96.7345 50.12 95.8585 49.52 95.5105 48.74L95.4505 50H94.2625V41H95.5105V45.176C95.8585 44.408 96.7345 43.808 97.8265 43.808C99.5665 43.808 100.862 45.224 100.862 46.964ZM99.6145 46.964C99.6145 45.884 98.7625 44.996 97.6225 44.996C96.4825 44.996 95.6425 45.884 95.6425 46.964C95.6425 48.044 96.4825 48.932 97.6225 48.932C98.7625 48.932 99.6145 48.044 99.6145 46.964ZM110.214 50L108.486 47.24H106.806V50H105.546V41.48H108.666C110.166 41.48 111.558 42.572 111.558 44.36C111.558 45.692 110.79 46.64 109.77 47.036L111.63 50H110.214ZM106.806 42.668V46.052H108.666C109.554 46.052 110.31 45.416 110.31 44.36C110.31 43.292 109.554 42.668 108.666 42.668H106.806ZM118.302 47.036V47.348H113.478C113.514 48.284 114.21 49.004 115.374 49.004C116.25 49.004 116.802 48.524 117.054 48.056L118.146 48.176C117.942 49.016 116.994 50.12 115.362 50.12C113.514 50.12 112.23 48.74 112.23 46.928C112.23 45.236 113.442 43.808 115.266 43.808C117.138 43.808 118.302 45.308 118.302 47.036ZM115.266 44.924C114.246 44.924 113.526 45.62 113.478 46.472H117.042C116.994 45.656 116.322 44.924 115.266 44.924ZM119.215 46.964C119.215 45.224 120.523 43.808 122.263 43.808C123.355 43.808 124.219 44.408 124.567 45.176L124.639 43.928H125.827V50H124.639L124.567 48.74C124.219 49.52 123.355 50.12 122.263 50.12C120.523 50.12 119.215 48.704 119.215 46.964ZM120.463 46.964C120.463 48.044 121.315 48.932 122.467 48.932C123.595 48.932 124.435 48.044 124.435 46.964C124.435 45.884 123.595 44.996 122.467 44.996C121.315 44.996 120.463 45.884 120.463 46.964ZM126.785 46.964C126.785 45.224 128.093 43.808 129.833 43.808C130.925 43.808 131.789 44.408 132.137 45.176V41H133.397V50H132.209L132.137 48.74C131.789 49.52 130.925 50.12 129.833 50.12C128.093 50.12 126.785 48.704 126.785 46.964ZM128.033 46.964C128.033 48.044 128.885 48.932 130.037 48.932C131.165 48.932 132.005 48.044 132.005 46.964C132.005 45.884 131.165 44.996 130.037 44.996C128.885 44.996 128.033 45.884 128.033 46.964ZM134.481 43.928H135.825L137.769 48.44L139.677 43.928H141.021L137.229 52.76H135.909L137.097 49.988L134.481 43.928ZM148.529 41.48C150.185 41.48 151.589 42.488 151.589 44.336C151.589 46.172 150.185 47.18 148.529 47.18H146.837V50H145.577V41.48H148.529ZM148.529 46.004C149.573 46.004 150.341 45.452 150.341 44.336C150.341 43.22 149.573 42.668 148.529 42.668H146.837V46.004H148.529ZM155.361 50.12C153.477 50.12 152.109 48.704 152.109 46.964C152.109 45.224 153.477 43.808 155.361 43.808C157.221 43.808 158.577 45.224 158.577 46.964C158.577 48.704 157.221 50.12 155.361 50.12ZM155.361 48.932C156.489 48.932 157.329 48.044 157.329 46.964C157.329 45.884 156.489 44.996 155.361 44.996C154.209 44.996 153.357 45.884 153.357 46.964C153.357 48.044 154.209 48.932 155.361 48.932ZM162.272 43.808C162.632 43.808 162.884 43.952 163.016 44.072L162.824 45.164C162.704 45.092 162.464 44.996 162.2 44.996C161.336 44.996 160.916 45.92 160.916 47.132V50H159.668V43.928H160.844L160.904 44.636C161.288 44.144 161.744 43.808 162.272 43.808ZM167.1 43.928V45.116H165.804V50H164.544V45.116H163.644V43.928H164.544V42.128H165.804V43.928H167.1ZM170.457 42.548C169.809 42.548 169.629 42.944 169.629 43.556V43.928H171.129V45.116H169.629V50H168.369V45.116H167.745V43.928H168.369V43.376C168.369 41.84 169.233 41.36 170.049 41.36C170.565 41.36 170.985 41.564 171.177 41.708V42.764C171.081 42.704 170.745 42.548 170.457 42.548ZM174.99 50.12C173.106 50.12 171.738 48.704 171.738 46.964C171.738 45.224 173.106 43.808 174.99 43.808C176.85 43.808 178.206 45.224 178.206 46.964C178.206 48.704 176.85 50.12 174.99 50.12ZM174.99 48.932C176.118 48.932 176.958 48.044 176.958 46.964C176.958 45.884 176.118 44.996 174.99 44.996C173.838 44.996 172.986 45.884 172.986 46.964C172.986 48.044 173.838 48.932 174.99 48.932ZM180.474 41V50H179.226V41H180.474ZM182.399 42.992C182.027 42.992 181.727 42.692 181.727 42.32C181.727 41.948 182.027 41.648 182.399 41.648C182.771 41.648 183.071 41.948 183.071 42.32C183.071 42.692 182.771 42.992 182.399 42.992ZM183.023 43.928V50H181.775V43.928H183.023ZM187.506 50.12C185.622 50.12 184.254 48.704 184.254 46.964C184.254 45.224 185.622 43.808 187.506 43.808C189.366 43.808 190.722 45.224 190.722 46.964C190.722 48.704 189.366 50.12 187.506 50.12ZM187.506 48.932C188.634 48.932 189.474 48.044 189.474 46.964C189.474 45.884 188.634 44.996 187.506 44.996C186.354 44.996 185.502 45.884 185.502 46.964C185.502 48.044 186.354 48.932 187.506 48.932Z" fill="#1D1D1D"/>
<defs>
<clipPath id="clip0_96_567">
<rect width="24" height="24" fill="white" transform="matrix(-1 0 0 1 24 0)"/>
</clipPath>
</defs>
</svg>
