<svg width="178" height="64" viewBox="0 0 178 64" fill="none" xmlns="http://www.w3.org/2000/svg">
<g clip-path="url(#clip0_96_583)">
<path d="M164.506 5.91033L153.087 14.1629L153.379 16.1416L156.565 17.1883L161.09 17.027L162.298 18.3652L163.798 21.6821L165.719 24.4314L167.698 24.1399L169.166 20.3857L170.27 14.1583L171.52 8.92017L172.916 4.67137L173.192 3.11451L171.416 1.35451L169.51 2.14069L164.506 5.91033Z" fill="#FF5F2F"/>
<path d="M170.039 1.28163C170.74 0.776137 171.752 0.76251 172.47 1.24929C173.157 1.71693 173.506 2.54963 173.369 3.35951L173.334 3.52152L168.356 23.2262C168.143 24.0612 167.458 24.6781 166.61 24.8042L166.484 24.8208C165.594 24.898 164.746 24.4048 164.372 23.5939L161.688 17.7549L161.562 17.4794L161.258 17.4639L154.499 17.1281L154.497 17.1274C153.602 17.0849 152.826 16.4759 152.571 15.6107C152.316 14.7482 152.637 13.8148 153.366 13.2903L153.367 13.2902L170.039 1.28163ZM171.04 1.39284C170.783 1.43073 170.538 1.53172 170.329 1.68115L170.327 1.6824L153.654 13.6911C153.093 14.0945 152.849 14.8096 153.044 15.4719C153.228 16.0937 153.76 16.5438 154.394 16.6264L154.522 16.6381L161.883 17.0016L164.819 23.3899C165.107 24.0143 165.76 24.3945 166.447 24.3316L166.461 24.3306L166.535 24.3198C167.146 24.2296 167.648 23.8049 167.842 23.2249L167.877 23.1063L172.856 3.4025C173.022 2.74264 172.756 2.042 172.193 1.6582L172.192 1.65834C171.854 1.42812 171.444 1.33331 171.04 1.39284Z" fill="#93E46E" stroke="black"/>
</g>
<rect y="26.0002" width="151" height="38" rx="19" fill="#FF5F2F"/>
<path d="M18.1154 40.4802C19.7714 40.4802 21.1754 41.4882 21.1754 43.3362C21.1754 45.1722 19.7714 46.1802 18.1154 46.1802H16.4234V49.0002H15.1634V40.4802H18.1154ZM18.1154 45.0042C19.1594 45.0042 19.9274 44.4522 19.9274 43.3362C19.9274 42.2202 19.1594 41.6682 18.1154 41.6682H16.4234V45.0042H18.1154ZM23.1425 40.0002V49.0002H21.8945V40.0002H23.1425ZM24.2851 45.9642C24.2851 44.2242 25.5931 42.8082 27.3331 42.8082C28.4251 42.8082 29.2891 43.4082 29.6371 44.1762L29.7091 42.9282H30.8971V49.0002H29.7091L29.6371 47.7402C29.2891 48.5202 28.4251 49.1202 27.3331 49.1202C25.5931 49.1202 24.2851 47.7042 24.2851 45.9642ZM25.5331 45.9642C25.5331 47.0442 26.3851 47.9322 27.5371 47.9322C28.6651 47.9322 29.5051 47.0442 29.5051 45.9642C29.5051 44.8842 28.6651 43.9962 27.5371 43.9962C26.3851 43.9962 25.5331 44.8842 25.5331 45.9642ZM36.8234 44.6802C36.3434 44.2122 35.8034 43.9962 35.1794 43.9962C34.1474 43.9962 33.1754 44.8122 33.1754 45.9642C33.1754 47.1162 34.1474 47.9322 35.1794 47.9322C35.8034 47.9322 36.3434 47.7042 36.8234 47.2362V48.4482C36.3914 48.8562 35.7674 49.1202 34.9874 49.1202C33.1994 49.1202 31.8554 47.6802 31.8554 45.9642C31.8554 44.2602 33.1994 42.8082 34.9874 42.8082C35.7674 42.8082 36.3914 43.0722 36.8234 43.4802V44.6802ZM43.8102 46.0362V46.3482H38.9862C39.0222 47.2842 39.7182 48.0042 40.8822 48.0042C41.7582 48.0042 42.3102 47.5242 42.5622 47.0562L43.6542 47.1762C43.4502 48.0162 42.5022 49.1202 40.8702 49.1202C39.0222 49.1202 37.7382 47.7402 37.7382 45.9282C37.7382 44.2362 38.9502 42.8082 40.7742 42.8082C42.6462 42.8082 43.8102 44.3082 43.8102 46.0362ZM40.7742 43.9242C39.7542 43.9242 39.0342 44.6202 38.9862 45.4722H42.5502C42.5022 44.6562 41.8302 43.9242 40.7742 43.9242ZM52.3144 42.8082C53.6104 42.8082 54.3064 43.7922 54.3064 45.1962V49.0002H53.0584V45.6162C53.0584 44.6442 52.6264 43.9962 51.8464 43.9962C50.8864 43.9962 50.2864 44.9802 50.2264 46.2522V49.0002H48.9784V45.6162C48.9784 44.6442 48.5584 43.9962 47.7664 43.9962C46.8064 43.9962 46.2064 44.9802 46.1464 46.2522V49.0002H44.8984V42.9282H46.0744L46.1344 43.8762C46.6624 43.2642 47.3584 42.8082 48.2344 42.8082C49.1464 42.8082 49.7584 43.3002 50.0464 44.0802C50.5984 43.3722 51.3424 42.8082 52.3144 42.8082ZM61.4118 46.0362V46.3482H56.5878C56.6238 47.2842 57.3198 48.0042 58.4838 48.0042C59.3598 48.0042 59.9118 47.5242 60.1638 47.0562L61.2558 47.1762C61.0518 48.0162 60.1038 49.1202 58.4718 49.1202C56.6238 49.1202 55.3398 47.7402 55.3398 45.9282C55.3398 44.2362 56.5518 42.8082 58.3758 42.8082C60.2478 42.8082 61.4118 44.3082 61.4118 46.0362ZM58.3758 43.9242C57.3558 43.9242 56.6358 44.6202 56.5878 45.4722H60.1518C60.1038 44.6562 59.4318 43.9242 58.3758 43.9242ZM66.0759 42.8082C67.5039 42.8082 68.3079 43.7442 68.3079 45.4362V49.0002H67.0599V45.9882C67.0599 44.5242 66.4719 43.9962 65.5959 43.9962C64.4079 43.9962 63.8079 44.9322 63.7479 45.8322V49.0002H62.4999V42.9282H63.6759L63.7359 43.9002C64.3119 43.2882 65.0919 42.8082 66.0759 42.8082ZM72.7326 42.9282V44.1162H71.4366V49.0002H70.1766V44.1162H69.2766V42.9282H70.1766V41.1282H71.4366V42.9282H72.7326ZM83.515 49.0002L82.795 47.0082H79.267L78.547 49.0002H77.251L80.323 40.4802H81.739L84.811 49.0002H83.515ZM79.699 45.8202H82.375L81.031 42.1122L79.699 45.8202ZM85.3632 47.2362H86.6112C86.7312 47.7282 87.2352 48.0642 88.0152 48.0642C88.6272 48.0642 89.1192 47.8242 89.1192 47.3922C89.1192 46.8162 88.5672 46.6842 87.3192 46.2522C86.3592 45.9402 85.5552 45.4722 85.5552 44.4882C85.5552 43.4442 86.6112 42.8082 87.7032 42.8082C89.1072 42.8082 89.9712 43.6002 90.0312 44.5962H88.7712C88.7232 44.0922 88.2192 43.8522 87.7512 43.8522C87.3072 43.8522 86.8152 44.0682 86.8152 44.4882C86.8152 44.9682 87.3312 45.0762 88.5792 45.5442C89.8152 45.9762 90.3792 46.5762 90.3792 47.4162C90.3792 48.4962 89.3352 49.1202 87.9912 49.1202C86.5272 49.1202 85.4832 48.4842 85.3632 47.2362ZM91.0702 47.2362H92.3182C92.4382 47.7282 92.9422 48.0642 93.7222 48.0642C94.3342 48.0642 94.8262 47.8242 94.8262 47.3922C94.8262 46.8162 94.2742 46.6842 93.0262 46.2522C92.0662 45.9402 91.2622 45.4722 91.2622 44.4882C91.2622 43.4442 92.3182 42.8082 93.4102 42.8082C94.8142 42.8082 95.6782 43.6002 95.7382 44.5962H94.4782C94.4302 44.0922 93.9262 43.8522 93.4582 43.8522C93.0142 43.8522 92.5222 44.0682 92.5222 44.4882C92.5222 44.9682 93.0382 45.0762 94.2862 45.5442C95.5222 45.9762 96.0862 46.5762 96.0862 47.4162C96.0862 48.4962 95.0422 49.1202 93.6982 49.1202C92.2342 49.1202 91.1902 48.4842 91.0702 47.2362ZM97.7698 41.9922C97.3978 41.9922 97.0978 41.6922 97.0978 41.3202C97.0978 40.9482 97.3978 40.6482 97.7698 40.6482C98.1418 40.6482 98.4418 40.9482 98.4418 41.3202C98.4418 41.6922 98.1418 41.9922 97.7698 41.9922ZM98.3938 42.9282V49.0002H97.1458V42.9282H98.3938ZM99.4491 47.2362H100.697C100.817 47.7282 101.321 48.0642 102.101 48.0642C102.713 48.0642 103.205 47.8242 103.205 47.3922C103.205 46.8162 102.653 46.6842 101.405 46.2522C100.445 45.9402 99.6411 45.4722 99.6411 44.4882C99.6411 43.4442 100.697 42.8082 101.789 42.8082C103.193 42.8082 104.057 43.6002 104.117 44.5962H102.857C102.809 44.0922 102.305 43.8522 101.837 43.8522C101.393 43.8522 100.901 44.0682 100.901 44.4882C100.901 44.9682 101.417 45.0762 102.665 45.5442C103.901 45.9762 104.465 46.5762 104.465 47.4162C104.465 48.4962 103.421 49.1202 102.077 49.1202C100.613 49.1202 99.5691 48.4842 99.4491 47.2362ZM108.592 42.9282V44.1162H107.296V49.0002H106.036V44.1162H105.136V42.9282H106.036V41.1282H107.296V42.9282H108.592ZM109.152 45.9642C109.152 44.2242 110.46 42.8082 112.2 42.8082C113.292 42.8082 114.156 43.4082 114.504 44.1762L114.576 42.9282H115.764V49.0002H114.576L114.504 47.7402C114.156 48.5202 113.292 49.1202 112.2 49.1202C110.46 49.1202 109.152 47.7042 109.152 45.9642ZM110.4 45.9642C110.4 47.0442 111.252 47.9322 112.404 47.9322C113.532 47.9322 114.372 47.0442 114.372 45.9642C114.372 44.8842 113.532 43.9962 112.404 43.9962C111.252 43.9962 110.4 44.8842 110.4 45.9642ZM120.72 42.8082C122.148 42.8082 122.952 43.7442 122.952 45.4362V49.0002H121.704V45.9882C121.704 44.5242 121.116 43.9962 120.24 43.9962C119.052 43.9962 118.452 44.9322 118.392 45.8322V49.0002H117.144V42.9282H118.32L118.38 43.9002C118.956 43.2882 119.736 42.8082 120.72 42.8082ZM128.898 44.6802C128.418 44.2122 127.878 43.9962 127.254 43.9962C126.222 43.9962 125.25 44.8122 125.25 45.9642C125.25 47.1162 126.222 47.9322 127.254 47.9322C127.878 47.9322 128.418 47.7042 128.898 47.2362V48.4482C128.466 48.8562 127.842 49.1202 127.062 49.1202C125.274 49.1202 123.93 47.6802 123.93 45.9642C123.93 44.2602 125.274 42.8082 127.062 42.8082C127.842 42.8082 128.466 43.0722 128.898 43.4802V44.6802ZM135.884 46.0362V46.3482H131.06C131.096 47.2842 131.792 48.0042 132.956 48.0042C133.832 48.0042 134.384 47.5242 134.636 47.0562L135.728 47.1762C135.524 48.0162 134.576 49.1202 132.944 49.1202C131.096 49.1202 129.812 47.7402 129.812 45.9282C129.812 44.2362 131.024 42.8082 132.848 42.8082C134.72 42.8082 135.884 44.3082 135.884 46.0362ZM132.848 43.9242C131.828 43.9242 131.108 44.6202 131.06 45.4722H134.624C134.576 44.6562 133.904 43.9242 132.848 43.9242Z" fill="white"/>
<defs>
<clipPath id="clip0_96_583">
<rect width="24" height="24" fill="white" transform="translate(150 3.49823) rotate(-8.3813)"/>
</clipPath>
</defs>
</svg>
