<svg width="178" height="64" viewBox="0 0 178 64" fill="none" xmlns="http://www.w3.org/2000/svg">
<g clip-path="url(#clip0_96_583)">
<path d="M164.506 5.91033L153.087 14.1629L153.379 16.1416L156.565 17.1883L161.09 17.027L162.298 18.3652L163.798 21.6821L165.719 24.4314L167.698 24.1399L169.166 20.3857L170.27 14.1583L171.52 8.92017L172.916 4.67137L173.192 3.11451L171.416 1.35451L169.51 2.14069L164.506 5.91033Z" fill="#FF5F2F"/>
<path d="M170.039 1.28163C170.74 0.776137 171.752 0.76251 172.47 1.24929C173.157 1.71693 173.506 2.54963 173.369 3.35951L173.334 3.52152L168.356 23.2262C168.143 24.0612 167.458 24.6781 166.61 24.8042L166.484 24.8208C165.594 24.898 164.746 24.4048 164.372 23.5939L161.688 17.7549L161.562 17.4794L161.258 17.4639L154.499 17.1281L154.497 17.1274C153.602 17.0849 152.826 16.4759 152.571 15.6107C152.316 14.7482 152.637 13.8148 153.366 13.2903L153.367 13.2902L170.039 1.28163ZM171.04 1.39284C170.783 1.43073 170.538 1.53172 170.329 1.68115L170.327 1.6824L153.654 13.6911C153.093 14.0945 152.849 14.8096 153.044 15.4719C153.228 16.0937 153.76 16.5438 154.394 16.6264L154.522 16.6381L161.883 17.0016L164.819 23.3899C165.107 24.0143 165.76 24.3945 166.447 24.3316L166.461 24.3306L166.535 24.3198C167.146 24.2296 167.648 23.8049 167.842 23.2249L167.877 23.1063L172.856 3.4025C173.022 2.74264 172.756 2.042 172.193 1.6582L172.192 1.65834C171.854 1.42812 171.444 1.33331 171.04 1.39284Z" fill="#93E46E" stroke="black"/>
</g>
<rect y="26.0002" width="150" height="38" rx="19" fill="#FF5F2F"/>
<path d="M18.217 47.8122H20.125V49.0002H15.037V47.8122H16.957V42.0162L15.301 42.3882V41.1522L18.217 40.4802V47.8122ZM24.1618 40.3602C25.8298 40.3602 27.3538 41.4882 27.3538 43.4202V46.0602C27.3538 47.9922 25.8298 49.1202 24.1618 49.1202C22.5058 49.1202 20.9698 47.9922 20.9698 46.0602V43.4202C20.9698 41.4882 22.5058 40.3602 24.1618 40.3602ZM24.1618 47.9322C25.2178 47.9322 26.1058 47.1882 26.1058 46.0602V43.4202C26.1058 42.2922 25.2178 41.5482 24.1618 41.5482C23.1058 41.5482 22.2178 42.2922 22.2178 43.4202V46.0602C22.2178 47.1882 23.1058 47.9322 24.1618 47.9322ZM31.779 40.3602C33.447 40.3602 34.971 41.4882 34.971 43.4202V46.0602C34.971 47.9922 33.447 49.1202 31.779 49.1202C30.123 49.1202 28.587 47.9922 28.587 46.0602V43.4202C28.587 41.4882 30.123 40.3602 31.779 40.3602ZM31.779 47.9322C32.835 47.9322 33.723 47.1882 33.723 46.0602V43.4202C33.723 42.2922 32.835 41.5482 31.779 41.5482C30.723 41.5482 29.835 42.2922 29.835 43.4202V46.0602C29.835 47.1882 30.723 47.9322 31.779 47.9322ZM38.8695 44.3202C37.7655 44.3202 36.8895 43.4442 36.8895 42.3402C36.8895 41.2362 37.7655 40.3602 38.8695 40.3602C39.9735 40.3602 40.8495 41.2362 40.8495 42.3402C40.8495 43.4442 39.9735 44.3202 38.8695 44.3202ZM45.6255 40.4802L39.1935 49.0002H38.0175L44.4495 40.4802H45.6255ZM38.8695 43.4082C39.4695 43.4082 39.9375 42.9402 39.9375 42.3402C39.9375 41.7402 39.4695 41.2722 38.8695 41.2722C38.2695 41.2722 37.8015 41.7402 37.8015 42.3402C37.8015 42.9402 38.2695 43.4082 38.8695 43.4082ZM44.8455 49.1202C43.7415 49.1202 42.8655 48.2442 42.8655 47.1402C42.8655 46.0362 43.7415 45.1602 44.8455 45.1602C45.9495 45.1602 46.8255 46.0362 46.8255 47.1402C46.8255 48.2442 45.9495 49.1202 44.8455 49.1202ZM44.8455 48.2082C45.4455 48.2082 45.9135 47.7402 45.9135 47.1402C45.9135 46.5402 45.4455 46.0722 44.8455 46.0722C44.2455 46.0722 43.7775 46.5402 43.7775 47.1402C43.7775 47.7402 44.2455 48.2082 44.8455 48.2082ZM52.9443 46.7202C52.9443 47.4402 53.3643 47.9322 54.0723 47.9322C54.7203 47.9322 55.1883 47.6202 55.1883 46.4802V40.4802H56.4363V46.4802C56.4363 48.2922 55.4043 49.1202 54.1203 49.1202C53.0163 49.1202 51.6963 48.4242 51.6963 46.7202H52.9443ZM60.8457 49.1202C58.9617 49.1202 57.5937 47.7042 57.5937 45.9642C57.5937 44.2242 58.9617 42.8082 60.8457 42.8082C62.7057 42.8082 64.0617 44.2242 64.0617 45.9642C64.0617 47.7042 62.7057 49.1202 60.8457 49.1202ZM60.8457 47.9322C61.9737 47.9322 62.8137 47.0442 62.8137 45.9642C62.8137 44.8842 61.9737 43.9962 60.8457 43.9962C59.6937 43.9962 58.8417 44.8842 58.8417 45.9642C58.8417 47.0442 59.6937 47.9322 60.8457 47.9322ZM71.7375 45.9642C71.7375 47.7042 70.4415 49.1202 68.7015 49.1202C67.6095 49.1202 66.7335 48.5202 66.3855 47.7402L66.3255 49.0002H65.1375V40.0002H66.3855V44.1762C66.7335 43.4082 67.6095 42.8082 68.7015 42.8082C70.4415 42.8082 71.7375 44.2242 71.7375 45.9642ZM70.4895 45.9642C70.4895 44.8842 69.6375 43.9962 68.4975 43.9962C67.3575 43.9962 66.5175 44.8842 66.5175 45.9642C66.5175 47.0442 67.3575 47.9322 68.4975 47.9322C69.6375 47.9322 70.4895 47.0442 70.4895 45.9642ZM76.6132 45.9642C76.6132 44.2242 77.9212 42.8082 79.6612 42.8082C80.7532 42.8082 81.6172 43.4082 81.9652 44.1762L82.0372 42.9282H83.2252V49.0002H82.0372L81.9652 47.7402C81.6172 48.5202 80.7532 49.1202 79.6612 49.1202C77.9212 49.1202 76.6132 47.7042 76.6132 45.9642ZM77.8612 45.9642C77.8612 47.0442 78.7132 47.9322 79.8652 47.9322C80.9932 47.9322 81.8332 47.0442 81.8332 45.9642C81.8332 44.8842 80.9932 43.9962 79.8652 43.9962C78.7132 43.9962 77.8612 44.8842 77.8612 45.9642ZM84.4296 47.2362H85.6776C85.7976 47.7282 86.3016 48.0642 87.0816 48.0642C87.6936 48.0642 88.1856 47.8242 88.1856 47.3922C88.1856 46.8162 87.6336 46.6842 86.3856 46.2522C85.4256 45.9402 84.6216 45.4722 84.6216 44.4882C84.6216 43.4442 85.6776 42.8082 86.7696 42.8082C88.1736 42.8082 89.0376 43.6002 89.0976 44.5962H87.8376C87.7896 44.0922 87.2856 43.8522 86.8176 43.8522C86.3736 43.8522 85.8816 44.0682 85.8816 44.4882C85.8816 44.9682 86.3976 45.0762 87.6456 45.5442C88.8816 45.9762 89.4456 46.5762 89.4456 47.4162C89.4456 48.4962 88.4016 49.1202 87.0576 49.1202C85.5936 49.1202 84.5496 48.4842 84.4296 47.2362ZM90.1366 47.2362H91.3846C91.5046 47.7282 92.0086 48.0642 92.7886 48.0642C93.4006 48.0642 93.8926 47.8242 93.8926 47.3922C93.8926 46.8162 93.3406 46.6842 92.0926 46.2522C91.1326 45.9402 90.3286 45.4722 90.3286 44.4882C90.3286 43.4442 91.3846 42.8082 92.4766 42.8082C93.8806 42.8082 94.7446 43.6002 94.8046 44.5962H93.5446C93.4966 44.0922 92.9926 43.8522 92.5246 43.8522C92.0806 43.8522 91.5886 44.0682 91.5886 44.4882C91.5886 44.9682 92.1046 45.0762 93.3526 45.5442C94.5886 45.9762 95.1526 46.5762 95.1526 47.4162C95.1526 48.4962 94.1086 49.1202 92.7646 49.1202C91.3006 49.1202 90.2566 48.4842 90.1366 47.2362ZM96.8362 41.9922C96.4642 41.9922 96.1642 41.6922 96.1642 41.3202C96.1642 40.9482 96.4642 40.6482 96.8362 40.6482C97.2082 40.6482 97.5082 40.9482 97.5082 41.3202C97.5082 41.6922 97.2082 41.9922 96.8362 41.9922ZM97.4602 42.9282V49.0002H96.2122V42.9282H97.4602ZM98.5155 47.2362H99.7635C99.8835 47.7282 100.388 48.0642 101.168 48.0642C101.78 48.0642 102.272 47.8242 102.272 47.3922C102.272 46.8162 101.72 46.6842 100.472 46.2522C99.5115 45.9402 98.7075 45.4722 98.7075 44.4882C98.7075 43.4442 99.7635 42.8082 100.856 42.8082C102.26 42.8082 103.124 43.6002 103.184 44.5962H101.924C101.876 44.0922 101.372 43.8522 100.904 43.8522C100.46 43.8522 99.9675 44.0682 99.9675 44.4882C99.9675 44.9682 100.484 45.0762 101.732 45.5442C102.968 45.9762 103.532 46.5762 103.532 47.4162C103.532 48.4962 102.488 49.1202 101.144 49.1202C99.6795 49.1202 98.6355 48.4842 98.5155 47.2362ZM107.658 42.9282V44.1162H106.362V49.0002H105.102V44.1162H104.202V42.9282H105.102V41.1282H106.362V42.9282H107.658ZM108.219 45.9642C108.219 44.2242 109.527 42.8082 111.267 42.8082C112.359 42.8082 113.223 43.4082 113.571 44.1762L113.643 42.9282H114.831V49.0002H113.643L113.571 47.7402C113.223 48.5202 112.359 49.1202 111.267 49.1202C109.527 49.1202 108.219 47.7042 108.219 45.9642ZM109.467 45.9642C109.467 47.0442 110.319 47.9322 111.471 47.9322C112.599 47.9322 113.439 47.0442 113.439 45.9642C113.439 44.8842 112.599 43.9962 111.471 43.9962C110.319 43.9962 109.467 44.8842 109.467 45.9642ZM119.787 42.8082C121.215 42.8082 122.019 43.7442 122.019 45.4362V49.0002H120.771V45.9882C120.771 44.5242 120.183 43.9962 119.307 43.9962C118.119 43.9962 117.519 44.9322 117.459 45.8322V49.0002H116.211V42.9282H117.387L117.447 43.9002C118.023 43.2882 118.803 42.8082 119.787 42.8082ZM127.964 44.6802C127.484 44.2122 126.944 43.9962 126.32 43.9962C125.288 43.9962 124.316 44.8122 124.316 45.9642C124.316 47.1162 125.288 47.9322 126.32 47.9322C126.944 47.9322 127.484 47.7042 127.964 47.2362V48.4482C127.532 48.8562 126.908 49.1202 126.128 49.1202C124.34 49.1202 122.996 47.6802 122.996 45.9642C122.996 44.2602 124.34 42.8082 126.128 42.8082C126.908 42.8082 127.532 43.0722 127.964 43.4802V44.6802ZM134.951 46.0362V46.3482H130.127C130.163 47.2842 130.859 48.0042 132.023 48.0042C132.899 48.0042 133.451 47.5242 133.703 47.0562L134.795 47.1762C134.591 48.0162 133.643 49.1202 132.011 49.1202C130.163 49.1202 128.879 47.7402 128.879 45.9282C128.879 44.2362 130.091 42.8082 131.915 42.8082C133.787 42.8082 134.951 44.3082 134.951 46.0362ZM131.915 43.9242C130.895 43.9242 130.175 44.6202 130.127 45.4722H133.691C133.643 44.6562 132.971 43.9242 131.915 43.9242Z" fill="white"/>
<defs>
<clipPath id="clip0_96_583">
<rect width="24" height="24" fill="white" transform="translate(150 3.49823) rotate(-8.3813)"/>
</clipPath>
</defs>
</svg>
