<svg width="25" height="24" viewBox="0 0 25 24" fill="none" xmlns="http://www.w3.org/2000/svg">
<path d="M18.7256 21.5478H10.8685C10.7965 21.5478 10.7295 21.5478 10.6642 21.5478C7.68308 21.5478 4.92286 19.9325 3.46492 17.3313L0 11.158L2.8573 11.1112L6.78588 4.30688C8.23713 1.64877 11.0141 0 14.0371 0C14.0706 0 14.1057 0 14.1392 0L21.2197 0.0870414L19.8321 2.58613L23.759 9.39043C25.3575 12.0117 25.3776 15.2758 23.8109 17.9104L20.1953 23.9983L18.7256 21.5478ZM15.1268 14.4405L18.8528 20.7025L21.5545 16.1612C22.5939 14.4137 22.5889 12.2444 21.5377 10.5036L19.3902 6.67039L15.1268 14.4405ZM15.4114 19.124L10.8132 11.5481L3.52853 11.6435L6.10964 16.2533C7.08216 17.9908 8.92175 19.0688 10.912 19.0688C10.9455 19.0688 10.9806 19.0688 11.0141 19.0688L15.4114 19.1257V19.124ZM13.6789 2.83052C11.6753 2.83052 9.82899 3.92021 8.85981 5.67443L6.61347 9.45069L15.475 9.25652L19.0353 2.89915L13.7525 2.82885H13.6789V2.83052Z" fill="#93E46E"/>
</svg>
