<svg width="127" height="24" viewBox="0 0 127 24" fill="none" xmlns="http://www.w3.org/2000/svg">
<g clip-path="url(#clip0_110_881)">
<path d="M40.002 3.04309H36.6125L29.7713 20.9552H32.9165L34.6908 16.337H41.9002L43.6812 20.9552H46.7913L40.0037 3.04309H40.002ZM35.1662 14.0053L38.283 5.79996L41.393 14.0053H35.1646H35.1662ZM58.4498 8.38442C57.4338 7.60607 55.9675 7.21773 54.0358 7.21773C53.0532 7.21773 52.1393 7.28636 51.2873 7.43533C50.4353 7.58598 49.7122 7.7768 49.118 8.02119V10.2725C50.4688 9.80888 51.9217 9.57621 53.4834 9.57621C54.466 9.57621 55.2092 9.65824 55.7214 9.82897C56.2336 9.99301 56.5801 10.2659 56.7793 10.6341C56.9701 11.0091 57.0722 11.5079 57.0722 12.1339V12.7197H52.8423C51.0412 12.7197 49.7122 13.1014 48.8518 13.873C47.9864 14.6447 47.5562 15.6607 47.5562 16.9228C47.5562 17.81 47.7671 18.5599 48.1973 19.1608C48.6275 19.7617 49.1933 20.212 49.9097 20.5116C50.6194 20.8046 51.3961 20.9552 52.2297 20.9552C53.4165 20.9552 54.4057 20.8113 55.1975 20.5384C55.9825 20.2589 56.6437 19.8555 57.1827 19.3382L57.3802 20.9552H59.9647V12.1908C59.9647 10.4316 59.4592 9.16277 58.4498 8.38442ZM57.0722 17.0886C56.642 17.6075 56.0896 18.0226 55.4151 18.3306C54.7405 18.6302 53.9488 18.7875 53.0415 18.7875C52.1828 18.7875 51.5267 18.6369 51.063 18.344C50.5993 18.0443 50.3667 17.5522 50.3667 16.871C50.3667 16.1897 50.5642 15.6356 50.9676 15.2958C51.3626 14.9544 52.0104 14.7836 52.8976 14.7836H57.0722V17.0886ZM80.1081 8.38442C79.0987 7.60607 77.6324 7.21773 75.7024 7.21773C74.7199 7.21773 73.7992 7.28636 72.9472 7.43533C72.0952 7.58598 71.3721 7.7768 70.7779 8.02119V10.2725C72.1354 9.80888 73.5883 9.57621 75.15 9.57621C76.1326 9.57621 76.8758 9.65824 77.388 9.82897C77.9002 9.99301 78.2467 10.2659 78.4459 10.6341C78.6367 11.0091 78.7388 11.5079 78.7388 12.1339V12.7197H74.509C72.7079 12.7197 71.3788 13.1014 70.5184 13.873C69.6514 14.6447 69.2229 15.6607 69.2229 16.9228C69.2229 17.81 69.4338 18.5599 69.864 19.1608C70.2874 19.7617 70.8599 20.212 71.5763 20.5116C72.286 20.8046 73.0627 20.9552 73.8963 20.9552C75.0831 20.9552 76.0723 20.8113 76.8574 20.5384C77.6491 20.2589 78.3103 19.8555 78.8493 19.3382L79.0401 20.9552H81.6313V12.1908C81.6313 10.4316 81.1258 9.16277 80.1097 8.38442H80.1081ZM78.7372 17.0886C78.307 17.6075 77.7546 18.0226 77.08 18.3306C76.4054 18.6302 75.607 18.7875 74.6998 18.7875C73.8478 18.7875 73.1916 18.6369 72.7279 18.344C72.2643 18.0443 72.0316 17.5522 72.0316 16.871C72.0316 16.1897 72.2291 15.6356 72.6325 15.2958C73.0276 14.9544 73.6754 14.7836 74.5625 14.7836H78.7372V17.0886ZM88.68 20.9552C87.771 20.9552 86.904 20.8899 86.0804 20.761C85.2552 20.6305 84.574 20.4731 84.0366 20.2873V17.728C84.666 17.969 85.3624 18.1548 86.1223 18.2837C86.8822 18.4143 87.6053 18.4795 88.2916 18.4795C89.3294 18.4795 90.071 18.3875 90.5162 18.2017C90.9615 18.0159 91.1841 17.6543 91.1841 17.117C91.1841 16.727 91.0502 16.4224 90.7807 16.1997C90.5112 15.9771 90.1128 15.7729 89.5839 15.5871C89.0549 15.4013 88.3837 15.1787 87.5668 14.9192C86.7885 14.6598 86.1106 14.3769 85.5364 14.0706C84.9623 13.7642 84.517 13.3709 84.2024 12.8888C83.8877 12.4067 83.7286 11.7757 83.7286 10.999C83.7286 9.79382 84.1638 8.86147 85.0359 8.20364C85.908 7.54581 87.3074 7.21605 89.2357 7.21605C89.9956 7.21605 90.7187 7.27129 91.405 7.38344C92.0913 7.49392 92.6755 7.63285 93.1576 7.80023V10.3311C92.6387 10.1269 92.0679 9.96957 91.4469 9.85743C90.8259 9.74528 90.245 9.69004 89.7077 9.69004C88.7436 9.69004 88.0154 9.77373 87.525 9.94112C87.0329 10.1085 86.7868 10.4416 86.7868 10.9421C86.7868 11.4426 87.0412 11.8276 87.5518 12.0402C88.0623 12.2544 88.8825 12.5457 90.014 12.9156C91.0518 13.232 91.8771 13.5651 92.4897 13.9182C93.1007 14.2698 93.5409 14.6916 93.8104 15.1837C94.0782 15.6758 94.2138 16.3102 94.2138 17.0902C94.2138 18.3875 93.7418 19.3567 92.796 19.9961C91.8503 20.6355 90.4777 20.9552 88.68 20.9552ZM107.551 8.99873C106.44 7.81195 104.694 7.21773 102.319 7.21773C99.9435 7.21773 98.2328 7.81195 97.1213 8.99873C96.0098 10.1855 95.4508 11.8778 95.4508 14.0873C95.4508 16.2968 96.0032 17.9891 97.1079 19.1759C98.206 20.3627 99.9451 20.9569 102.319 20.9569C104.692 20.9569 106.46 20.3627 107.565 19.1759C108.669 17.9891 109.215 16.2901 109.215 14.0873C109.215 11.8845 108.663 10.1855 107.551 8.99873ZM105.286 17.3815C104.701 18.0577 103.711 18.3975 102.319 18.3975C100.926 18.3975 99.9719 18.0561 99.3861 17.3815C98.8069 16.7069 98.5123 15.6089 98.5123 14.0873C98.5123 12.5658 98.8052 11.4677 99.3861 10.8065C99.9719 10.1386 100.948 9.80386 102.319 9.80386C103.69 9.80386 104.699 10.1386 105.286 10.8065C105.866 11.4677 106.16 12.5658 106.16 14.0873C106.16 15.6089 105.867 16.7069 105.286 17.3815ZM111.071 20.9552V10.1353H111.06V7.77011H111.071V6.15817C111.071 4.84083 111.438 3.77959 112.171 2.97278C112.903 2.16598 113.992 1.76257 115.439 1.76257C115.976 1.76257 116.466 1.80442 116.912 1.88811C117.357 1.97181 117.764 2.0873 118.135 2.23628V4.40562C117.561 4.20141 116.977 4.0993 116.383 4.0993C115.51 4.0993 114.908 4.25664 114.575 4.57301C114.242 4.8877 114.074 5.42668 114.074 6.18495V7.77011H117.522L117.384 10.1353H114.074V20.9552H111.07H111.071ZM123.468 20.9552C122.059 20.9552 121.007 20.5803 120.311 19.8287C119.616 19.0771 119.268 18.0527 119.268 16.7555V9.8591V7.49392V4.46253L122.271 3.54525V7.49392H125.776L125.582 9.8591H122.273V16.5897C122.273 17.3497 122.449 17.8836 122.802 18.1883C123.153 18.4946 123.729 18.6486 124.526 18.6486C125.026 18.6486 125.555 18.5549 126.111 18.3707V20.5116C125.388 20.8079 124.508 20.9569 123.47 20.9569L123.468 20.9552ZM66.3639 7.49392H68.7207V10.46H67.5356C65.84 10.46 65.316 11.158 65.316 12.6796V20.9552H62.1758V11.6819C62.1758 9.36865 64.0506 7.49392 66.3639 7.49392Z" fill="white"/>
<path d="M18.7256 21.5478H10.8685C10.7965 21.5478 10.7295 21.5478 10.6642 21.5478C7.68308 21.5478 4.92286 19.9325 3.46492 17.3313L0 11.158L2.8573 11.1112L6.78588 4.30688C8.23713 1.64877 11.0141 0 14.0371 0C14.0706 0 14.1057 0 14.1392 0L21.2197 0.0870414L19.8321 2.58613L23.759 9.39043C25.3575 12.0117 25.3776 15.2758 23.8109 17.9104L20.1953 23.9983L18.7256 21.5478ZM15.1268 14.4405L18.8528 20.7025L21.5545 16.1612C22.5939 14.4137 22.5889 12.2444 21.5377 10.5036L19.3902 6.67039L15.1268 14.4405ZM15.4114 19.124L10.8132 11.5481L3.52853 11.6435L6.10964 16.2533C7.08216 17.9908 8.92175 19.0688 10.912 19.0688C10.9455 19.0688 10.9806 19.0688 11.0141 19.0688L15.4114 19.1257V19.124ZM13.6789 2.83052C11.6753 2.83052 9.82899 3.92021 8.85981 5.67443L6.61347 9.45069L15.475 9.25652L19.0353 2.89915L13.7525 2.82885H13.6789V2.83052Z" fill="#93E46E"/>
</g>
<defs>
<clipPath id="clip0_110_881">
<rect width="126.11" height="24" fill="white"/>
</clipPath>
</defs>
</svg>
