<svg width="20" height="20" viewBox="0 0 20 20" fill="none" xmlns="http://www.w3.org/2000/svg">
<path d="M6.10376 16.0354C7.4933 16.0354 8.42241 16.5544 8.83259 16.8474C8.98326 16.9311 9.41016 17.1822 9.50223 17.1906V4.53431C8.95812 3.52149 7.35937 2.70117 5.70201 2.70117C3.60937 2.70117 1.8348 3.90653 1.44141 4.71849V16.5377C1.44141 17.0901 1.76787 17.2994 2.16126 17.2994C2.47933 17.2994 2.68862 17.1906 2.88948 17.0232C3.38337 16.5795 4.54687 16.0354 6.10376 16.0354ZM13.9051 16.0354C15.462 16.0354 16.6173 16.5795 17.1194 17.0232C17.3119 17.1822 17.5212 17.2994 17.8392 17.2994C18.2326 17.2994 18.5592 17.0901 18.5592 16.5377V4.71849C18.1658 3.90653 16.3995 2.70117 14.3069 2.70117C12.6495 2.70117 11.0508 3.52149 10.5067 4.53431V17.2073C10.5988 17.1989 11.0257 16.9395 11.1847 16.8474C11.5865 16.5544 12.5156 16.0354 13.9051 16.0354Z" fill="#93E46E"/>
</svg>
