<svg width="40" height="40" viewBox="0 0 40 40" fill="none" xmlns="http://www.w3.org/2000/svg">
<g clip-path="url(#clip0_96_779)">
<path d="M20.0103 0.302734C11.7855 0.302734 9.38002 0.311219 8.91245 0.350007C7.22457 0.49031 6.17427 0.756068 5.03002 1.32576C4.14821 1.76364 3.45275 2.27122 2.76639 2.98273C1.51639 4.28031 0.758812 5.87667 0.484569 7.77425C0.351236 8.69546 0.312448 8.88334 0.304569 13.5888C0.301539 15.1573 0.304569 17.2215 0.304569 19.9903C0.304569 28.2085 0.31366 30.6115 0.353054 31.0782C0.489418 32.7206 0.746994 33.7539 1.29245 34.8843C2.33487 37.0479 4.32578 38.6721 6.67124 39.2782C7.48336 39.4873 8.38033 39.6024 9.53184 39.657C10.0197 39.6782 14.9924 39.6933 19.9682 39.6933C24.944 39.6933 29.9197 39.6873 30.3955 39.663C31.7288 39.6003 32.5031 39.4964 33.3591 39.2752C35.7197 38.6661 37.6743 37.0661 38.7379 34.8721C39.2728 33.7691 39.544 32.6964 39.6667 31.1397C39.6934 30.8003 39.7046 25.3891 39.7046 19.9852C39.7046 14.5803 39.6925 9.1791 39.6658 8.8397C39.5415 7.25789 39.2703 6.19425 38.7182 5.07001C38.2652 4.1497 37.7621 3.46243 37.0318 2.7597C35.7285 1.51486 34.1346 0.75728 32.2352 0.48334C31.3149 0.35031 31.1315 0.310916 26.4224 0.302734H20.0103Z" fill="url(#paint0_radial_96_779)"/>
<path d="M20.0103 0.302734C11.7855 0.302734 9.38002 0.311219 8.91245 0.350007C7.22457 0.49031 6.17427 0.756068 5.03002 1.32576C4.14821 1.76364 3.45275 2.27122 2.76639 2.98273C1.51639 4.28031 0.758812 5.87667 0.484569 7.77425C0.351236 8.69546 0.312448 8.88334 0.304569 13.5888C0.301539 15.1573 0.304569 17.2215 0.304569 19.9903C0.304569 28.2085 0.31366 30.6115 0.353054 31.0782C0.489418 32.7206 0.746994 33.7539 1.29245 34.8843C2.33487 37.0479 4.32578 38.6721 6.67124 39.2782C7.48336 39.4873 8.38033 39.6024 9.53184 39.657C10.0197 39.6782 14.9924 39.6933 19.9682 39.6933C24.944 39.6933 29.9197 39.6873 30.3955 39.663C31.7288 39.6003 32.5031 39.4964 33.3591 39.2752C35.7197 38.6661 37.6743 37.0661 38.7379 34.8721C39.2728 33.7691 39.544 32.6964 39.6667 31.1397C39.6934 30.8003 39.7046 25.3891 39.7046 19.9852C39.7046 14.5803 39.6925 9.1791 39.6658 8.8397C39.5415 7.25789 39.2703 6.19425 38.7182 5.07001C38.2652 4.1497 37.7621 3.46243 37.0318 2.7597C35.7285 1.51486 34.1346 0.75728 32.2352 0.48334C31.3149 0.35031 31.1315 0.310916 26.4224 0.302734H20.0103Z" fill="url(#paint1_radial_96_779)"/>
<path d="M20.0013 5.45508C16.051 5.45508 15.5552 5.47235 14.0037 5.54296C12.4552 5.61387 11.3982 5.85902 10.4734 6.21871C9.51671 6.59023 8.7052 7.0872 7.89671 7.89599C7.08762 8.70447 6.59065 9.51599 6.21792 10.4724C5.85732 11.3975 5.61186 12.4548 5.54217 14.0027C5.47277 15.5542 5.45459 16.0502 5.45459 20.0005C5.45459 23.9508 5.47217 24.4451 5.54247 25.9966C5.61368 27.5451 5.85883 28.602 6.21823 29.5269C6.59004 30.4836 7.08701 31.2951 7.8958 32.1036C8.70398 32.9127 9.5155 33.4108 10.4716 33.7824C11.397 34.142 12.4543 34.3872 14.0025 34.4581C15.554 34.5287 16.0494 34.546 19.9994 34.546C23.95 34.546 24.4443 34.5287 25.9958 34.4581C27.5443 34.3872 28.6025 34.142 29.5279 33.7824C30.4843 33.4108 31.2946 32.9127 32.1028 32.1036C32.9119 31.2951 33.4088 30.4836 33.7816 29.5272C34.1391 28.602 34.3846 27.5448 34.4573 25.9969C34.527 24.4454 34.5452 23.9508 34.5452 20.0005C34.5452 16.0502 34.527 15.5545 34.4573 14.003C34.3846 12.4545 34.1391 11.3975 33.7816 10.4727C33.4088 9.51599 32.9119 8.70447 32.1028 7.89599C31.2937 7.0869 30.4846 6.58993 29.527 6.21871C28.5997 5.85902 27.5422 5.61387 25.9937 5.54296C24.4422 5.47235 23.9482 5.45508 19.9967 5.45508H20.0013ZM18.6964 8.07629C19.0837 8.07568 19.5158 8.07629 20.0013 8.07629C23.8849 8.07629 24.3452 8.09023 25.8788 8.15993C27.297 8.22478 28.0667 8.46175 28.5794 8.66084C29.2582 8.92447 29.7422 9.23962 30.251 9.74871C30.76 10.2578 31.0752 10.7427 31.3394 11.4214C31.5385 11.9336 31.7758 12.7033 31.8403 14.1214C31.91 15.6548 31.9252 16.1154 31.9252 19.9972C31.9252 23.879 31.91 24.3396 31.8403 25.873C31.7755 27.2911 31.5385 28.0608 31.3394 28.573C31.0758 29.2517 30.76 29.7351 30.251 30.2439C29.7419 30.753 29.2585 31.0681 28.5794 31.3317C28.0673 31.5317 27.297 31.7681 25.8788 31.833C24.3455 31.9027 23.8849 31.9178 20.0013 31.9178C16.1173 31.9178 15.657 31.9027 14.1237 31.833C12.7055 31.7675 11.9358 31.5305 11.4228 31.3314C10.744 31.0678 10.2591 30.7527 9.75004 30.2436C9.24095 29.7345 8.9258 29.2508 8.66156 28.5717C8.46247 28.0596 8.2252 27.2899 8.16065 25.8717C8.09095 24.3384 8.07701 23.8778 8.07701 19.9936C8.07701 16.1093 8.09095 15.6511 8.16065 14.1178C8.2255 12.6996 8.46247 11.9299 8.66156 11.4172C8.9252 10.7384 9.24095 10.2536 9.75004 9.74447C10.2591 9.23538 10.744 8.92023 11.4228 8.65599C11.9355 8.45599 12.7055 8.21962 14.1237 8.15447C15.4655 8.09387 15.9855 8.07568 18.6964 8.07265V8.07629ZM27.7655 10.4914C26.8019 10.4914 26.02 11.2724 26.02 12.2363C26.02 13.1999 26.8019 13.9817 27.7655 13.9817C28.7291 13.9817 29.511 13.1999 29.511 12.2363C29.511 11.2727 28.7291 10.4908 27.7655 10.4908V10.4914ZM20.0013 12.5308C15.8761 12.5308 12.5316 15.8754 12.5316 20.0005C12.5316 24.1257 15.8761 27.4687 20.0013 27.4687C24.1264 27.4687 27.4697 24.1257 27.4697 20.0005C27.4697 15.8754 24.1264 12.5308 20.0013 12.5308ZM20.0013 15.152C22.6788 15.152 24.8497 17.3227 24.8497 20.0005C24.8497 22.6781 22.6788 24.849 20.0013 24.849C17.3234 24.849 15.1528 22.6781 15.1528 20.0005C15.1528 17.3227 17.3234 15.152 20.0013 15.152Z" fill="white"/>
</g>
<defs>
<radialGradient id="paint0_radial_96_779" cx="0" cy="0" r="1" gradientUnits="userSpaceOnUse" gradientTransform="translate(10.7693 42.7272) rotate(-90) scale(39.039 36.3192)">
<stop stop-color="#FFDD55"/>
<stop offset="0.1" stop-color="#FFDD55"/>
<stop offset="0.5" stop-color="#FF543E"/>
<stop offset="1" stop-color="#C837AB"/>
</radialGradient>
<radialGradient id="paint1_radial_96_779" cx="0" cy="0" r="1" gradientTransform="matrix(3.42609 17.1112 -70.5506 14.1263 -6.29671 3.14037)" gradientUnits="userSpaceOnUse">
<stop stop-color="#3771C8"/>
<stop offset="0.128" stop-color="#3771C8"/>
<stop offset="1" stop-color="#6600FF" stop-opacity="0"/>
</radialGradient>
<clipPath id="clip0_96_779">
<rect width="40.0012" height="40" fill="white"/>
</clipPath>
</defs>
</svg>
