<svg width="40" height="40" viewBox="0 0 40 40" fill="none" xmlns="http://www.w3.org/2000/svg">
<path d="M0 2.86535C0 1.28329 1.31503 0 2.93729 0H36.8105C38.4327 0 39.7478 1.28329 39.7478 2.86535V37.1346C39.7478 38.7172 38.4327 40 36.8105 40H2.93729C1.31503 40 0 38.7172 0 37.1346V2.86535Z" fill="#006699"/>
<path fill-rule="evenodd" clip-rule="evenodd" d="M12.0489 33.4863V15.4241H6.04533V33.4863H12.0489ZM9.04707 12.958C11.1406 12.958 12.4437 11.571 12.4437 9.8377C12.4047 8.06536 11.1406 6.71687 9.08679 6.71687C7.03316 6.71687 5.69043 8.06536 5.69043 9.8377C5.69043 11.571 6.99322 12.958 9.00794 12.958H9.04707Z" fill="white"/>
<path fill-rule="evenodd" clip-rule="evenodd" d="M15.3706 33.4863H21.3741V23.3996C21.3741 22.8598 21.4131 22.3205 21.5716 21.9346C22.0056 20.856 22.9935 19.739 24.652 19.739C26.8244 19.739 27.6934 21.3953 27.6934 23.8235V33.4863H33.6964V23.1297C33.6964 17.5818 30.7346 15.0002 26.7847 15.0002C23.546 15.0002 22.1241 16.8105 21.3342 18.0436H21.3743V15.4241H15.3708C15.4496 17.1189 15.3706 33.4863 15.3706 33.4863Z" fill="white"/>
</svg>
