<svg width="20" height="20" viewBox="0 0 20 20" fill="none" xmlns="http://www.w3.org/2000/svg">
<path d="M10.625 5H3.75C2.6875 5 1.875 5.8125 1.875 6.875V13.125C1.875 14.1875 2.6875 15 3.75 15H10.625C11.6875 15 12.5 14.1875 12.5 13.125V6.875C12.5 5.8125 11.6875 5 10.625 5Z" fill="#93E46E"/>
<path d="M17.8125 5.06055C17.625 4.93555 17.375 4.93555 17.1875 5.06055L14.0625 6.93555C13.875 7.06055 13.75 7.24805 13.75 7.49805V12.498C13.75 12.748 13.875 12.9355 14.0625 13.0605L17.1875 14.9355C17.25 14.998 17.375 14.998 17.5 14.998C17.625 14.998 17.6875 14.998 17.8125 14.9355C18 14.8105 18.125 14.623 18.125 14.373V5.62305C18.125 5.37305 18 5.18555 17.8125 5.06055Z" fill="#93E46E"/>
</svg>
