<svg width="20" height="20" viewBox="0 0 20 20" fill="none" xmlns="http://www.w3.org/2000/svg">
<g clip-path="url(#clip0_213_1539)">
<path d="M16.6679 17.7265L15.1796 14.6366C14.8593 13.9765 14.4452 13.496 13.7304 13.789L12.3202 14.3124C11.1913 14.8358 10.6288 14.3124 10.0624 13.5233L7.52333 7.74599C7.20301 7.08583 7.37098 6.46474 8.08583 6.17177L10.0585 5.38271C10.7733 5.08583 10.66 4.46864 10.3397 3.80849L8.64833 0.660051C8.32801 -0.000105618 7.67176 -0.160262 6.95692 0.132707C5.52723 0.722551 4.34364 1.64833 3.57411 3.01943C2.63661 4.69521 3.10536 7.02724 3.29286 8.00771C3.48036 8.98818 4.13661 10.7069 4.98426 12.4686C5.83192 14.2343 6.57411 15.621 7.24208 16.4061C7.90614 17.1913 9.49989 19.3397 11.4725 19.8202C13.0897 20.2108 14.8358 19.8827 16.2655 19.2929C16.9843 19.0116 16.9843 18.3905 16.6679 17.7265Z" fill="#93E46E"/>
</g>
<defs>
<clipPath id="clip0_213_1539">
<rect width="20" height="20" fill="white"/>
</clipPath>
</defs>
</svg>
