<svg width="20" height="20" viewBox="0 0 20 20" fill="none" xmlns="http://www.w3.org/2000/svg">
<path d="M18.3332 6.93359V15.0003C18.3332 15.4423 18.1576 15.8662 17.845 16.1788C17.5325 16.4913 17.1085 16.6669 16.6665 16.6669H3.33317C2.89114 16.6669 2.46722 16.4913 2.15466 16.1788C1.8421 15.8662 1.6665 15.4423 1.6665 15.0003V7.24193L3.33317 8.15026L9.59984 11.5669C9.72269 11.6332 9.86023 11.6676 9.99984 11.6669C10.1466 11.6654 10.2903 11.6252 10.4165 11.5503L16.6665 7.90859L18.3332 6.93359Z" fill="#93E46E"/>
<path d="M18.3332 4.99967L16.6665 5.98301L9.99984 9.87467L3.33317 6.24967L1.6665 5.33301V4.99967C1.6665 4.55765 1.8421 4.13372 2.15466 3.82116C2.46722 3.5086 2.89114 3.33301 3.33317 3.33301H16.6665C17.1085 3.33301 17.5325 3.5086 17.845 3.82116C18.1576 4.13372 18.3332 4.55765 18.3332 4.99967Z" fill="#93E46E"/>
</svg>
